<svg width="24" height="24" viewBox="0 0 24 24" fill="none" xmlns="http://www.w3.org/2000/svg">
<path fill-rule="evenodd" clip-rule="evenodd" d="M22 5.72011L17.4 1.86011L16.11 3.39011L20.71 7.25011L22 5.72011ZM7.88 3.39011L6.6 1.86011L2 5.71011L3.29 7.24011L7.88 3.39011ZM12.5 8.00011H11V14.0001L15.75 16.8501L16.5 15.6201L12.5 13.2501V8.00011ZM12 4.00011C7.03 4.00011 3 8.03011 3 13.0001C3 17.9701 7.02 22.0001 12 22.0001C16.97 22.0001 21 17.9701 21 13.0001C21 8.03011 16.97 4.00011 12 4.00011ZM12 20.0001C8.13 20.0001 5 16.8701 5 13.0001C5 9.13011 8.13 6.00011 12 6.00011C15.87 6.00011 19 9.13011 19 13.0001C19 16.8701 15.87 20.0001 12 20.0001Z" fill="#5D636D"/>
</svg>
