<svg width="24" height="24" viewBox="0 0 24 24" fill="none" xmlns="http://www.w3.org/2000/svg">
<path fill-rule="evenodd" clip-rule="evenodd" d="M3.74399 6.61642C3.97036 6.98096 4.47308 7.05187 4.77672 6.74733C5.29036 6.23278 5.87127 5.70824 6.45854 5.28914C7.00581 4.89914 7.69763 4.53733 8.38854 4.2246C8.78763 4.0446 8.88854 3.53733 8.61581 3.1946C7.94854 2.35914 6.8449 1.88914 5.64763 2.13642C4.49127 2.37551 3.56308 3.33733 3.34854 4.49824C3.20399 5.28369 3.37127 6.01914 3.74399 6.61642ZM19.9931 6.61642C19.7658 6.98096 19.2631 7.05187 18.9594 6.74733C18.4458 6.23278 17.8658 5.70824 17.2785 5.28914C16.7304 4.89914 16.0394 4.53733 15.3476 4.2246C14.9485 4.0446 14.8476 3.53733 15.1204 3.1946C15.7876 2.35914 16.8913 1.88914 18.0885 2.13642C19.2449 2.37551 20.174 3.33733 20.3876 4.49824C20.5322 5.28369 20.3649 6.01914 19.9931 6.61642ZM19.8649 12.2873C20.0876 14.5773 19.3431 16.6901 17.9976 18.2764C17.7894 18.5228 17.7522 18.8691 17.9267 19.1391L18.8522 20.5728C19.0558 20.8901 18.964 21.3128 18.6467 21.5164C18.3294 21.7201 17.9076 21.6291 17.7031 21.3119L16.9849 20.1991C16.7758 19.8746 16.3449 19.7619 16.0149 19.9628C14.804 20.6964 13.3876 21.1228 11.8685 21.1228C10.3458 21.1228 8.92581 20.6937 7.71399 19.9564C7.38217 19.7555 6.94945 19.8682 6.74036 20.1955L6.0249 21.3119C5.82127 21.6291 5.39854 21.7201 5.08127 21.5164C4.76399 21.3128 4.67217 20.8901 4.87672 20.5728L5.80308 19.1273C5.97581 18.8564 5.93854 18.511 5.73127 18.2655C4.54854 16.8673 3.83308 15.0619 3.83308 13.0873C3.83308 8.35005 7.93308 4.57005 12.7776 5.10187C16.4976 5.51005 19.504 8.56278 19.8649 12.2873ZM5.90672 13.0873C5.90672 9.7946 8.57581 7.12551 11.8685 7.12551C15.1613 7.12551 17.8304 9.7946 17.8304 13.0873C17.8304 16.3801 15.1613 19.0482 11.8685 19.0482C8.57581 19.0482 5.90672 16.3801 5.90672 13.0873Z" fill="#5D636D"/>
</svg>
