<svg width="24" height="24" viewBox="0 0 24 24" fill="none" xmlns="http://www.w3.org/2000/svg">
<path fill-rule="evenodd" clip-rule="evenodd" d="M13.0163 10.9837H18.0976L16.5732 9.45935L18.0163 8.01626L22 12L18.0163 15.9837L16.5732 14.5407L18.0976 13.0163H13.0163V18.0976L14.5407 16.5732L15.9837 18.0163L12 22L8.01626 18.0163L9.45935 16.5732L10.9837 18.0976V13.0163H5.90244L7.42683 14.5407L5.98374 15.9837L2 12L5.98374 8.01626L7.42683 9.45935L5.90244 10.9837H10.9837V5.90244L9.45935 7.42683L8.01626 5.98374L12 2L15.9837 5.98374L14.5407 7.42683L13.0163 5.90244V10.9837Z" fill="#5D636D"/>
</svg>
