<svg width="24" height="24" viewBox="0 0 24 24" fill="none" xmlns="http://www.w3.org/2000/svg">
<path d="M9.56 8.00011L7.56 6.00011L3.41 1.86011L2 3.27011L4.73 6.00011H4C3.45 6.00011 3 6.45011 3 7.00011V17.0001C3 17.5501 3.45 18.0001 4 18.0001H16C16.21 18.0001 16.39 17.9201 16.55 17.8201L19.73 21.0001L21.14 19.5901L12.28 10.7301L9.56 8.00011ZM5 16.0001V8.00011H6.73L14.73 16.0001H5ZM15 8.00011V10.6101L21 16.6101V6.50011L17 10.5001V7.00011C17 6.45011 16.55 6.00011 16 6.00011H10.39L12.39 8.00011H15Z" fill="#5D636D"/>
</svg>
