<svg width="24" height="24" viewBox="0 0 24 24" fill="none" xmlns="http://www.w3.org/2000/svg">
<path d="M11.9604 22C11.8279 22 11.6983 21.9596 11.5881 21.884C11.4779 21.8084 11.392 21.7009 11.3412 21.5752C11.2905 21.4495 11.2772 21.3112 11.3031 21.1777C11.3289 21.0443 11.3928 20.9217 11.4865 20.8255L19.2879 12.8178C20.1968 11.8849 20.7074 10.6197 20.7074 9.30044C20.7074 7.98117 20.1968 6.71593 19.2879 5.78307C18.3791 4.8502 17.1464 4.32612 15.8611 4.32612C14.5758 4.32612 13.3432 4.8502 12.4344 5.78307L4.24679 14.1912C3.65509 14.8068 3.3246 15.6376 3.32741 16.5023C3.33022 17.3671 3.66611 18.1956 4.26179 18.8071C4.85748 19.4187 5.66462 19.7636 6.5071 19.7666C7.34959 19.7696 8.15904 19.4305 8.75887 18.8232L16.9478 10.4158C17.2362 10.12 17.3984 9.71867 17.3986 9.30014C17.3988 8.88161 17.237 8.48014 16.9488 8.18406C16.6606 7.88798 16.2696 7.72153 15.8619 7.72134C15.4541 7.72114 15.063 7.88722 14.7745 8.18303L6.97375 16.1928C6.84732 16.3181 6.67799 16.3874 6.50223 16.3859C6.32646 16.3843 6.15833 16.3119 6.03405 16.1844C5.90976 16.0568 5.83926 15.8842 5.83773 15.7038C5.83621 15.5234 5.90377 15.3496 6.02588 15.2198L13.8267 7.21217C14.3662 6.65833 15.0981 6.34718 15.8611 6.34718C16.6242 6.34718 17.356 6.65833 17.8956 7.21217C18.4352 7.76602 18.7383 8.51719 18.7383 9.30044C18.7383 10.0837 18.4352 10.8349 17.8956 11.3887L9.70405 19.7968C8.85119 20.6545 7.70304 21.1322 6.50906 21.1259C5.31507 21.1196 4.17173 20.63 3.32745 19.7634C2.48316 18.8968 2.00615 17.7233 2.00006 16.4977C1.99397 15.2722 2.45928 14.0937 3.29491 13.2183L11.4865 4.81152C12.6508 3.64201 14.2176 2.9911 15.8467 3.00009C17.4758 3.00909 19.0356 3.67726 20.1877 4.85956C21.3397 6.04187 21.9909 7.64286 21.9999 9.31499C22.0089 10.9871 21.375 12.5954 20.2358 13.7907L12.4344 21.7984C12.3087 21.9274 12.1382 22 11.9604 22Z" fill="#5D636D"/>
</svg>
