<svg width="24" height="24" viewBox="0 0 24 24" fill="none" xmlns="http://www.w3.org/2000/svg">
<path fill-rule="evenodd" clip-rule="evenodd" d="M12 2C6.47736 2 2 6.47672 2 11.9996C2 17.5225 6.47736 22 12 22C17.5226 22 22 17.5225 22 11.9996C22 6.47672 17.5226 2 12 2ZM11.9734 4.59415C12.4619 4.59415 12.858 4.9903 12.858 5.47801C12.858 5.96654 12.4619 6.3627 11.9734 6.3627C11.4849 6.3627 11.0895 5.96654 11.0895 5.47801C11.0895 4.9903 11.4849 4.59415 11.9734 4.59415ZM6.33006 9.6393C5.84154 9.6393 5.44541 9.24398 5.44541 8.75544C5.44541 8.26691 5.84154 7.87075 6.33006 7.87075C6.81774 7.87075 7.21388 8.26691 7.21388 8.75544C7.21388 9.24398 6.81774 9.6393 6.33006 9.6393ZM8.70939 7.24656C8.22087 7.24656 7.82473 6.85123 7.82473 6.3627C7.82473 5.87416 8.22087 5.47801 8.70939 5.47801C9.1979 5.47801 9.59321 5.87416 9.59321 6.3627C9.59321 6.85123 9.1979 7.24656 8.70939 7.24656ZM11.4316 19.0596C10.8041 18.8907 10.2873 18.3863 10.1067 17.7613C9.86285 16.9199 10.1716 16.1326 10.7508 15.6665C11.0055 15.4618 11.1669 15.1647 11.1669 14.8384V11.6034C11.1669 11.1582 11.5281 10.797 11.9734 10.797C12.4186 10.797 12.779 11.1582 12.779 11.6034V14.8368C12.779 15.1672 12.9462 15.4643 13.2034 15.6732C13.642 16.0294 13.9233 16.572 13.9233 17.1821C13.9233 18.4354 12.7415 19.4125 11.4316 19.0596ZM15.224 7.24656C14.7355 7.24656 14.3394 6.85123 14.3394 6.3627C14.3394 5.87416 14.7355 5.47801 15.224 5.47801C15.7126 5.47801 16.1079 5.87416 16.1079 6.3627C16.1079 6.85123 15.7126 7.24656 15.224 7.24656ZM17.63 9.6393C17.1415 9.6393 16.7453 9.24398 16.7453 8.75544C16.7453 8.26691 17.1415 7.87075 17.63 7.87075C18.1177 7.87075 18.5138 8.26691 18.5138 8.75544C18.5138 9.24398 18.1177 9.6393 17.63 9.6393Z" fill="#5D636D"/>
</svg>
