<svg width="24" height="24" viewBox="0 0 24 24" fill="none" xmlns="http://www.w3.org/2000/svg">
<path fill-rule="evenodd" clip-rule="evenodd" d="M14.5709 4.92857V5.57143H19.7137V6.85714H18.428V19.0714C18.428 20.1365 17.5646 21 16.4994 21H7.49944C6.43432 21 5.57087 20.1365 5.57087 19.0714V6.85714H4.28516V5.57143H9.42801V4.92857C9.42801 3.86345 10.2915 3 11.3566 3H12.6423C13.7074 3 14.5709 3.86345 14.5709 4.92857ZM11.3562 4.28594C11.0012 4.28594 10.7134 4.57376 10.7134 4.9288V5.57165H13.2848V4.9288C13.2848 4.57376 12.997 4.28594 12.6419 4.28594H11.3562ZM17.1427 19.0714C17.1427 19.4264 16.8549 19.7142 16.4998 19.7142H7.49981C7.14477 19.7142 6.85695 19.4264 6.85695 19.0714V6.85708H17.1427V19.0714ZM8.78516 9.42886H10.0709V17.1431H8.78516V9.42886ZM12.6427 9.42886H11.357V17.1431H12.6427V9.42886ZM15.2131 9.42886H13.9274V17.1431H15.2131V9.42886Z" fill="#5D636D"/>
</svg>
