<svg width="24" height="24" viewBox="0 0 24 24" fill="none" xmlns="http://www.w3.org/2000/svg">
<path fill-rule="evenodd" clip-rule="evenodd" d="M15.2608 2.82448C16.3712 3.4598 17.2583 4.57422 17.6949 5.88193C18.1579 7.26892 18.0826 8.74922 17.4828 10.0501C17.2428 10.5706 16.9255 11.0099 16.6187 11.4348L16.6185 11.435C16.1505 12.0832 15.7084 12.6955 15.5254 13.5711C15.4869 13.7553 15.4721 13.9653 15.4578 14.1686L15.4577 14.171L15.4576 14.1714C15.4362 14.4768 15.4159 14.7651 15.3201 14.9806C15.132 15.4038 14.571 15.9628 13.9017 16.1653C13.5821 16.262 13.1849 16.275 12.8385 16.275H12.8384C12.7998 16.275 12.6932 16.2744 12.5557 16.2734C12.5582 16.2617 12.5594 16.2496 12.5592 16.2372C12.5391 15.1729 13.1924 11.5847 13.1991 11.5486C13.2132 11.4714 13.1691 11.3951 13.0924 11.3641C13.0157 11.333 12.9262 11.3552 12.8759 11.4178L11.9019 12.6297L10.9345 11.3986C10.8839 11.3342 10.7923 11.3116 10.7145 11.3444C10.6367 11.3771 10.5938 11.4563 10.6115 11.5345C10.8776 12.7106 11.4831 16.1585 11.5019 16.2653L11.4863 16.2653C10.9673 16.2653 10.4266 16.2539 10.0207 16.1178C9.42889 15.9194 8.8411 15.4083 8.65355 14.9289C8.57863 14.7375 8.57459 14.5358 8.56991 14.3024L8.56991 14.3023C8.56566 14.0909 8.56085 13.8513 8.49998 13.5723C8.32624 12.7758 7.85118 12.1029 7.39176 11.4522L7.39163 11.452C7.10757 11.0497 6.81389 10.6338 6.59334 10.192C5.76833 8.53983 5.95409 7.02001 6.25516 6.036C6.63185 4.80496 7.39928 3.72076 8.36077 3.06144C9.49273 2.28515 10.9661 1.90752 12.4426 2.02105C13.4811 2.101 14.5082 2.39386 15.2608 2.82448ZM12.2002 16.2707C12.1984 16.2617 12.1972 16.2526 12.1971 16.2432C12.1817 15.4291 12.5301 13.2846 12.7214 12.1743L12.0449 13.016C12.0107 13.0586 11.9571 13.0836 11.9003 13.0836H11.8993C11.8422 13.0833 11.7884 13.0577 11.7545 13.0145L11.1217 12.2093C11.4215 13.7149 11.8545 16.183 11.8597 16.2127C11.863 16.2315 11.8627 16.2501 11.8595 16.268L12.2002 16.2707ZM14.0343 18.5221L10.0804 17.9645C9.92731 17.9429 9.78321 18.0427 9.76015 18.1862L9.71768 18.4509C9.69465 18.5945 9.80109 18.7296 9.95417 18.7512L13.9081 19.3088C14.0612 19.3303 14.2053 19.2306 14.2283 19.087L14.2708 18.8223C14.2939 18.6787 14.1874 18.5437 14.0343 18.5221ZM10.0804 16.9734L14.0343 17.531C14.1874 17.5526 14.2939 17.6877 14.2708 17.8313L14.2283 18.096C14.2053 18.2395 14.0612 18.3393 13.9081 18.3177L9.95417 17.7601C9.80109 17.7385 9.69465 17.6034 9.71768 17.4599L9.76015 17.1952C9.78321 17.0516 9.92731 16.9518 10.0804 16.9734ZM13.8931 19.4932L13.415 19.4258L10.6261 19.0325L10.2216 18.9754C9.99082 18.9429 9.77365 19.0933 9.73893 19.3096C9.70421 19.5259 9.86461 19.7296 10.0954 19.7621L10.3215 19.794L10.3889 19.8035C10.3857 19.8416 10.3836 19.8799 10.3836 19.9188C10.3836 20.7443 11.0974 21.4135 11.9779 21.4135C12.7381 21.4135 13.3736 20.9145 13.5332 20.2469L13.7669 20.2799C13.9976 20.3124 14.2148 20.1621 14.2496 19.9457C14.2843 19.7294 14.1239 19.5257 13.8931 19.4932Z" fill="#5D636D"/>
</svg>
