<svg width="24" height="24" viewBox="0 0 24 24" fill="none" xmlns="http://www.w3.org/2000/svg">
<path fill-rule="evenodd" clip-rule="evenodd" d="M13.8394 16.7642H11.816H9.764C9.31589 16.7642 8.96899 16.5092 8.84701 15.8833C8.6485 13.8955 7.92055 12.5541 7.25049 11.3194C6.59778 10.1166 6 9.01507 6 7.51583C6 4.4775 8.64458 2 11.8013 2C14.9589 2 17.6026 4.4775 17.6026 7.51583C17.6026 9.0151 17.005 10.1167 16.3525 11.3194C15.6826 12.5542 14.9549 13.8955 14.7564 15.8833C14.6345 16.5092 14.2876 16.7642 13.8394 16.7642ZM9.4543 21.0817C9.52524 21.1542 9.61088 21.2033 9.70345 21.2308L10.5409 21.415C10.7632 21.4533 10.9665 21.61 11.1023 21.8158C11.2373 22.0217 11.5132 22.2158 11.8039 22.2158C12.0946 22.2158 12.3679 22.0217 12.5037 21.8158C12.6387 21.61 12.8429 21.4533 13.0643 21.415L13.9026 21.2308L13.9017 21.23C13.9926 21.2033 14.0782 21.1533 14.1483 21.0817C14.3637 20.8608 14.3412 20.5092 14.1189 20.295C13.9891 20.17 14.0064 19.9425 14.1362 19.8175C14.3602 19.6017 14.3602 19.2517 14.1362 19.0358C14.0012 18.9058 14.0012 18.6833 14.1362 18.5533C14.362 18.3358 14.3602 17.9808 14.1301 17.7658C14.022 17.665 13.881 17.615 13.7382 17.6133V17.6125H9.85224V17.6133C9.71383 17.6175 9.57714 17.6675 9.47247 17.7658C9.24235 17.9808 9.24062 18.3358 9.46641 18.5533C9.60137 18.6833 9.60137 18.9058 9.46641 19.0358C9.24235 19.2517 9.24235 19.6017 9.46641 19.8175C9.59618 19.9425 9.61348 20.17 9.48371 20.295C9.26139 20.5092 9.23889 20.8608 9.4543 21.0817Z" fill="#5D636D"/>
</svg>
