<svg width="24" height="24" viewBox="0 0 24 24" fill="none" xmlns="http://www.w3.org/2000/svg">
<path d="M3.66667 7.2H2V11.2H2.00833L2 18.4C2 19.28 2.75 20 3.66667 20H18.6667V18.4H3.66667V7.2ZM7.83333 14.4H19.5L16.5833 10.8L14.5 13.208L11.5833 9.6L7.83333 14.4ZM20.3333 5.6H13.6667L12 4H7C6.08333 4 5.34167 4.72 5.34167 5.6L5.33333 15.2C5.33333 16.08 6.08333 16.8 7 16.8H20.3333C21.25 16.8 22 16.08 22 15.2V7.2C22 6.32 21.25 5.6 20.3333 5.6ZM20.3333 15.2H7V5.6H11.3083L12.4833 6.728L12.975 7.2H20.3333V15.2Z" fill="#5D636D"/>
</svg>
