<svg width="24" height="24" viewBox="0 0 24 24" fill="none" xmlns="http://www.w3.org/2000/svg">
<path fill-rule="evenodd" clip-rule="evenodd" d="M5.03454 4.43303C4.72077 4.47396 4.47382 4.72091 4.4329 5.03467L3.93951 8.81728C3.88967 9.1994 4.15904 9.54957 4.54116 9.59941C4.92328 9.64926 5.27345 9.37989 5.32329 8.99777L5.63434 6.61308L9.0801 10.0588C9.35259 10.3313 9.79438 10.3313 10.0669 10.0588C10.3394 9.78636 10.3394 9.34457 10.0669 9.07208L6.62738 5.63259L8.99764 5.32343C9.37976 5.27358 9.64912 4.92341 9.59928 4.54129C9.54944 4.15917 9.19926 3.88981 8.81714 3.93965L5.03454 4.43303Z" fill="#5D636D"/>
<path fill-rule="evenodd" clip-rule="evenodd" d="M5.03454 4.43303C4.72077 4.47396 4.47382 4.72091 4.4329 5.03467L3.93951 8.81728C3.88967 9.1994 4.15904 9.54957 4.54116 9.59941C4.92328 9.64926 5.27345 9.37989 5.32329 8.99777L5.63434 6.61308L9.0801 10.0588C9.35259 10.3313 9.79438 10.3313 10.0669 10.0588C10.3394 9.78636 10.3394 9.34457 10.0669 9.07208L6.62738 5.63259L8.99764 5.32343C9.37976 5.27358 9.64912 4.92341 9.59928 4.54129C9.54944 4.15917 9.19926 3.88981 8.81714 3.93965L5.03454 4.43303Z" fill="#5D636D"/>
<path fill-rule="evenodd" clip-rule="evenodd" d="M4.43181 18.9652C4.47274 19.279 4.71968 19.5259 5.03345 19.5669L8.81606 20.0602C9.19818 20.1101 9.54835 19.8407 9.59819 19.4586C9.64804 19.0765 9.37867 18.7263 8.99655 18.6765L6.61173 18.3654L10.0574 14.9198C10.3298 14.6473 10.3298 14.2055 10.0574 13.933C9.78487 13.6605 9.34308 13.6605 9.0706 13.933L5.63135 17.3722L5.3222 15.0021C5.27236 14.62 4.92219 14.3506 4.54007 14.4005C4.15795 14.4503 3.88859 14.8005 3.93843 15.1826L4.43181 18.9652Z" fill="#5D636D"/>
<path fill-rule="evenodd" clip-rule="evenodd" d="M19.5682 5.03454C19.5273 4.72077 19.2803 4.47382 18.9665 4.4329L15.1839 3.93951C14.8018 3.88967 14.4516 4.15904 14.4018 4.54116C14.352 4.92328 14.6213 5.27345 15.0034 5.32329L17.3881 5.63434L13.9425 9.07997C13.67 9.35246 13.67 9.79425 13.9425 10.0667C14.215 10.3392 14.6568 10.3392 14.9293 10.0667L18.3686 6.62738L18.6778 8.99764C18.7276 9.37976 19.0778 9.64912 19.4599 9.59928C19.842 9.54944 20.1114 9.19926 20.0616 8.81714L19.5682 5.03454Z" fill="#5D636D"/>
<path fill-rule="evenodd" clip-rule="evenodd" d="M18.9655 19.567C19.2792 19.526 19.5262 19.2791 19.5671 18.9653L20.0605 15.1827C20.1103 14.8006 19.841 14.4504 19.4588 14.4006C19.0767 14.3507 18.7266 14.6201 18.6767 15.0022L18.3656 17.3873L14.9198 13.9414C14.6473 13.6689 14.2055 13.6689 13.933 13.9414C13.6605 14.2139 13.6605 14.6557 13.933 14.9282L17.3723 18.3675L15.0024 18.6766C14.6202 18.7264 14.3509 19.0766 14.4007 19.4587C14.4506 19.8408 14.8007 20.1102 15.1829 20.0604L18.9655 19.567Z" fill="#5D636D"/>
</svg>
