<svg width="24" height="24" viewBox="0 0 24 24" fill="none" xmlns="http://www.w3.org/2000/svg">
<path fill-rule="evenodd" clip-rule="evenodd" d="M10.55 20.03L12 21.35L13.45 20.04L13.4895 20.0041C18.6174 15.3442 22 12.2703 22 8.5C22 5.42 19.58 3 16.5 3C14.76 3 13.09 3.81 12 5.09C10.91 3.81 9.24 3 7.5 3C4.42 3 2 5.42 2 8.5C2 12.2769 5.39442 15.3549 10.5373 20.0185L10.55 20.03ZM10.84 17.9929L12 19L13.16 18.0005L13.1916 17.9732C17.2939 14.418 20 12.0727 20 9.19619C20 6.84632 18.064 5 15.6 5C14.4676 5 13.3723 6.33903 12.5337 7.36424C12.3414 7.5993 12.1626 7.81786 12 8C11.8374 7.81786 11.6586 7.5993 11.4663 7.36424C10.6277 6.33903 9.53237 5 8.4 5C5.936 5 4 6.84632 4 9.19619C4 12.0777 6.71554 14.4261 10.8299 17.9842L10.84 17.9929Z" fill="#5D636D"/>
</svg>
