<svg width="24" height="24" viewBox="0 0 24 24" fill="none" xmlns="http://www.w3.org/2000/svg">
<path fill-rule="evenodd" clip-rule="evenodd" d="M15 6.5H20C20.2761 6.5 20.5 6.72386 20.5 7V20C20.5 20.2761 20.2761 20.5 20 20.5H4C3.72386 20.5 3.5 20.2761 3.5 20V7C3.5 6.72386 3.72386 6.5 4 6.5H9V5H4C2.89543 5 2 5.89543 2 7V20C2 21.1046 2.89543 22 4 22H20C21.1046 22 22 21.1046 22 20V7C22 5.89543 21.1046 5 20 5H15V6.5Z" fill="#5D636D"/>
<path fill-rule="evenodd" clip-rule="evenodd" d="M8.41 10.09L7 11.5L12 16.5L17 11.5L15.59 10.09L13 12.67V3H11V12.67L8.41 10.09Z" fill="#5D636D"/>
</svg>
