<svg width="24" height="24" viewBox="0 0 24 24" fill="none" xmlns="http://www.w3.org/2000/svg">
<path fill-rule="evenodd" clip-rule="evenodd" d="M14.1319 2C13.1005 2 12.2645 2.81115 12.2645 3.81176C12.2645 4.81237 13.1005 5.62352 14.1319 5.62352C15.1632 5.62352 15.9993 4.81237 15.9993 3.81176C15.9993 2.81115 15.1632 2 14.1319 2ZM13.6852 7.76194C12.2037 7.88272 8.15766 11.011 8.15766 11.011C7.90867 11.1922 7.98337 11.1801 8.18256 11.5183C8.38175 11.8444 8.35685 11.8686 8.59339 11.7116C8.84238 11.5546 9.25321 11.3009 9.93792 10.8902C12.5772 9.24758 10.3612 13.0402 9.22831 19.4297C8.78013 22.5942 11.7182 20.9636 12.4776 20.4805C13.2246 20.0094 15.2289 18.6687 15.4281 18.5359C15.702 18.3547 15.5028 18.2097 15.2912 17.9078C15.1418 17.7024 14.9924 17.8474 14.9924 17.8474C14.1832 18.3668 12.7017 19.4538 12.5025 18.7653C12.266 18.0769 13.7848 13.3542 14.6189 10.1051C14.7558 9.33213 15.1293 7.64115 13.6852 7.76194Z" fill="#5D636D"/>
</svg>
