<svg width="24" height="24" viewBox="0 0 24 24" fill="none" xmlns="http://www.w3.org/2000/svg">
<path fill-rule="evenodd" clip-rule="evenodd" d="M12.2304 5.30627C12.1704 5.33057 12.1061 5.34271 12.0413 5.34198C11.9114 5.34198 11.7869 5.29035 11.695 5.19843C11.6032 5.10652 11.5516 4.98186 11.5516 4.85187V1.54778C11.5443 1.47868 11.5516 1.40882 11.573 1.34272C11.5944 1.27663 11.6295 1.21577 11.6759 1.16412C11.7223 1.11246 11.7791 1.07116 11.8426 1.04289C11.906 1.01461 11.9746 1 12.0441 1C12.1135 1 12.1822 1.01461 12.2456 1.04289C12.309 1.07116 12.3658 1.11246 12.4122 1.16412C12.4587 1.21577 12.4937 1.27663 12.5152 1.34272C12.5366 1.40882 12.5439 1.47868 12.5366 1.54778V4.85187C12.5366 4.9167 12.5237 4.98089 12.4988 5.04071C12.4738 5.10054 12.4372 5.15481 12.3912 5.20039C12.3451 5.24598 12.2905 5.28196 12.2304 5.30627ZM16.9983 7.43432C17.0821 7.45828 17.1709 7.45916 17.2551 7.43686C17.3394 7.41457 17.4161 7.36994 17.4771 7.30766L19.8268 4.96176C19.8727 4.91534 19.9089 4.86031 19.9335 4.79983C19.958 4.73934 19.9704 4.6746 19.9699 4.60932C19.9733 4.54121 19.9623 4.47314 19.9377 4.40956C19.913 4.34598 19.8752 4.28833 19.8268 4.24037C19.734 4.14789 19.6083 4.09597 19.4774 4.09597C19.3464 4.09597 19.2207 4.14789 19.1279 4.24037L16.7782 6.59178C16.6869 6.68418 16.6356 6.80877 16.6352 6.93871C16.6294 6.98073 16.6294 7.02334 16.6352 7.06537C16.6552 7.15467 16.6999 7.23656 16.7641 7.30177C16.8283 7.36698 16.9094 7.4129 16.9983 7.43432ZM5.33881 12.0494C5.33881 11.9194 5.28721 11.7947 5.19537 11.7028C5.10352 11.6109 4.97895 11.5593 4.84906 11.5593H1.54738C1.47833 11.552 1.40852 11.5593 1.34247 11.5807C1.27642 11.6021 1.21562 11.6372 1.164 11.6837C1.11238 11.7302 1.07111 11.787 1.04285 11.8505C1.0146 11.9139 1 11.9827 1 12.0521C1 12.1216 1.0146 12.1903 1.04285 12.2538C1.07111 12.3173 1.11238 12.3741 1.164 12.4206C1.21562 12.4671 1.27642 12.5021 1.34247 12.5236C1.40852 12.545 1.47833 12.5523 1.54738 12.545H4.84906C4.91384 12.545 4.97798 12.5321 5.03776 12.5072C5.09754 12.4822 5.15178 12.4456 5.19733 12.3995C5.24288 12.3534 5.27884 12.2987 5.30312 12.2386C5.32741 12.1785 5.33954 12.1142 5.33881 12.0494ZM6.79226 16.6763C6.8609 16.6525 6.93408 16.6446 7.00623 16.6532C7.07672 16.6619 7.1444 16.6861 7.20436 16.7242C7.26432 16.7623 7.31506 16.8133 7.3529 16.8735C7.40374 16.9542 7.43047 17.0479 7.42994 17.1433C7.43034 17.2077 7.4179 17.2716 7.39333 17.3312C7.36876 17.3908 7.33257 17.4448 7.28687 17.4902L4.93717 19.8416C4.87604 19.902 4.80027 19.9454 4.7173 19.9676C4.63433 19.9898 4.54702 19.9901 4.46393 19.9683C4.38078 19.9461 4.30495 19.9023 4.24409 19.8414C4.18323 19.7805 4.13948 19.7046 4.11726 19.6214C4.11196 19.5775 4.11196 19.5331 4.11726 19.4892C4.11716 19.4248 4.12975 19.361 4.15429 19.3015C4.17884 19.242 4.21488 19.1879 4.26033 19.1423L6.61002 16.7909C6.66129 16.7393 6.72361 16.7002 6.79226 16.6763ZM6.60997 7.30773C6.65546 7.35335 6.7095 7.38955 6.76899 7.41424C6.82847 7.43894 6.89224 7.45165 6.95665 7.45165C7.02105 7.45165 7.08482 7.43894 7.14431 7.41424C7.2038 7.38955 7.25783 7.35335 7.30332 7.30773C7.34891 7.2622 7.38508 7.20813 7.40976 7.1486C7.43444 7.08907 7.44714 7.02525 7.44714 6.9608C7.44714 6.89635 7.43444 6.83253 7.40976 6.773C7.38508 6.71347 7.34891 6.65939 7.30332 6.61387L4.95363 4.24043C4.90814 4.19481 4.8541 4.15861 4.79461 4.13392C4.73513 4.10922 4.67136 4.09651 4.60695 4.09651C4.54255 4.09651 4.47878 4.10922 4.41929 4.13392C4.3598 4.15861 4.30577 4.19481 4.26028 4.24043C4.21458 4.28583 4.17838 4.3399 4.15382 4.39947C4.12925 4.45904 4.1168 4.52292 4.1172 4.58736C4.11668 4.65264 4.12905 4.71738 4.15361 4.77786C4.17816 4.83834 4.21441 4.89338 4.26028 4.9398L6.60997 7.30773ZM17.4767 16.7909C17.3832 16.6997 17.2578 16.6487 17.1273 16.6487C16.9967 16.6487 16.8714 16.6997 16.7779 16.7909C16.7322 16.8363 16.696 16.8904 16.6714 16.9499C16.6468 17.0095 16.6344 17.0734 16.6348 17.1378C16.6343 17.2031 16.6466 17.2678 16.6712 17.3283C16.6957 17.3888 16.732 17.4438 16.7779 17.4903L19.1275 19.8417C19.2221 19.9245 19.3446 19.9683 19.4702 19.9641C19.5958 19.96 19.7151 19.9082 19.804 19.8192C19.8929 19.7303 19.9446 19.6109 19.9488 19.4852C19.9529 19.3595 19.9092 19.2369 19.8264 19.1423L17.4767 16.7909ZM11.9115 18.7746C12.0103 18.7479 12.1151 18.7533 12.2108 18.7899C12.305 18.8249 12.3861 18.8881 12.4432 18.9708C12.5003 19.0536 12.5306 19.1519 12.5299 19.2525V22.5566C12.5171 22.6783 12.4596 22.7909 12.3687 22.8728C12.2778 22.9547 12.1598 23 12.0374 23C11.9151 23 11.7971 22.9547 11.7062 22.8728C11.6153 22.7909 11.5578 22.6783 11.5449 22.5566V19.2525C11.544 19.1373 11.5851 19.0257 11.6605 18.9386C11.7247 18.8587 11.8126 18.8013 11.9115 18.7746ZM22.5573 11.5592H19.2556C19.134 11.5721 19.0214 11.6296 18.9396 11.7206C18.8578 11.8116 18.8125 11.9297 18.8125 12.0521C18.8125 12.1745 18.8578 12.2926 18.9396 12.3836C19.0214 12.4746 19.134 12.5321 19.2556 12.5449H22.5573C22.6789 12.5321 22.7915 12.4746 22.8733 12.3836C22.9551 12.2926 23.0004 12.1745 23.0004 12.0521C23.0004 11.9297 22.9551 11.8116 22.8733 11.7206C22.7915 11.6296 22.6789 11.5721 22.5573 11.5592ZM9.00995 7.4772C9.90613 6.87304 10.9609 6.54776 12.0415 6.54231C12.7641 6.54231 13.4797 6.68475 14.1473 6.96149C14.8149 7.23824 15.4215 7.64387 15.9325 8.15522C16.4435 8.66658 16.8488 9.27365 17.1254 9.94176C17.4019 10.6099 17.5442 11.326 17.5442 12.0491C17.5388 13.1305 17.2138 14.186 16.61 15.0828C16.0063 15.9797 15.1509 16.6777 14.1516 17.089C13.1522 17.5003 12.0536 17.6065 10.9941 17.3942C9.93457 17.1819 8.9615 16.6606 8.19743 15.896C7.43335 15.1313 6.91245 14.1576 6.70031 13.0972C6.48817 12.0369 6.59428 10.9375 7.00527 9.93745C7.41627 8.93738 8.11377 8.08136 9.00995 7.4772ZM7.90178 10.3282C7.67832 10.8743 7.56478 11.4591 7.56768 12.0491V12.0326C7.57346 13.2182 8.04667 14.3536 8.88441 15.192C9.72215 16.0303 10.8567 16.5039 12.0415 16.5097V7.54455C11.4518 7.54527 10.8682 7.66248 10.3239 7.88945C9.77965 8.11642 9.28552 8.44868 8.86988 8.86719C8.45423 9.2857 8.12524 9.78221 7.90178 10.3282Z" fill="#5D636D"/>
</svg>
