<svg width="24" height="24" viewBox="0 0 24 24" fill="none" xmlns="http://www.w3.org/2000/svg">
<g clip-path="url(#clip0_330_66)">
<path fill-rule="evenodd" clip-rule="evenodd" d="M10.9097 7.43326L12.8543 5.48872C13.5419 4.80108 14.4745 4.41477 15.447 4.41477C16.4194 4.41477 17.3521 4.80108 18.0397 5.48871C19.4716 6.92064 19.4716 9.24224 18.0397 10.6742L16.0952 12.6187C15.7372 12.9767 15.7372 13.5571 16.0952 13.9151C16.4531 14.2731 17.0335 14.2731 17.3915 13.9151L19.3361 11.9705C21.4839 9.82264 21.4839 6.34024 19.3361 4.19235C18.3046 3.1609 16.9057 2.58144 15.447 2.58144C13.9883 2.58144 12.5893 3.1609 11.5579 4.19235L9.61335 6.1369C9.25537 6.49488 9.25537 7.07528 9.61335 7.43326C9.97133 7.79124 10.5517 7.79124 10.9097 7.43326ZM12.2061 16.5078L10.2615 18.4523C9.57389 19.14 8.64126 19.5263 7.6688 19.5263C6.69634 19.5263 5.76371 19.14 5.07608 18.4523C3.64415 17.0204 3.64415 14.6988 5.07608 13.2669L7.02062 11.3224C7.3786 10.9644 7.3786 10.384 7.02062 10.026C6.66264 9.66801 6.08224 9.66801 5.72426 10.026L3.77971 11.9705C1.63183 14.1184 1.63183 17.6008 3.77971 19.7487C4.81116 20.7802 6.21011 21.3596 7.6688 21.3596C9.12749 21.3596 10.5264 20.7802 11.5579 19.7487L13.5024 17.8042C13.8604 17.4462 13.8604 16.8658 13.5024 16.5078C13.1445 16.1498 12.5641 16.1498 12.2061 16.5078ZM14.7988 10.026L9.61334 15.2115C9.25536 15.5694 8.67496 15.5694 8.31698 15.2115C7.959 14.8535 7.959 14.2731 8.31698 13.9151L13.5024 8.72965C13.8604 8.37167 14.4408 8.37167 14.7988 8.72965C15.1568 9.08763 15.1568 9.66803 14.7988 10.026Z" fill="#5D636D"/>
<mask id="mask0_330_66" style="mask-type:alpha" maskUnits="userSpaceOnUse" x="2" y="2" width="19" height="20">
<path fill-rule="evenodd" clip-rule="evenodd" d="M10.9097 7.43326L12.8543 5.48872C13.5419 4.80108 14.4745 4.41477 15.447 4.41477C16.4194 4.41477 17.3521 4.80108 18.0397 5.48871C19.4716 6.92064 19.4716 9.24224 18.0397 10.6742L16.0952 12.6187C15.7372 12.9767 15.7372 13.5571 16.0952 13.9151C16.4531 14.2731 17.0335 14.2731 17.3915 13.9151L19.3361 11.9705C21.4839 9.82264 21.4839 6.34024 19.3361 4.19235C18.3046 3.1609 16.9057 2.58144 15.447 2.58144C13.9883 2.58144 12.5893 3.1609 11.5579 4.19235L9.61335 6.1369C9.25537 6.49488 9.25537 7.07528 9.61335 7.43326C9.97133 7.79124 10.5517 7.79124 10.9097 7.43326ZM12.2061 16.5078L10.2615 18.4523C9.57389 19.14 8.64126 19.5263 7.6688 19.5263C6.69634 19.5263 5.76371 19.14 5.07608 18.4523C3.64415 17.0204 3.64415 14.6988 5.07608 13.2669L7.02062 11.3224C7.3786 10.9644 7.3786 10.384 7.02062 10.026C6.66264 9.66801 6.08224 9.66801 5.72426 10.026L3.77971 11.9705C1.63183 14.1184 1.63183 17.6008 3.77971 19.7487C4.81116 20.7802 6.21011 21.3596 7.6688 21.3596C9.12749 21.3596 10.5264 20.7802 11.5579 19.7487L13.5024 17.8042C13.8604 17.4462 13.8604 16.8658 13.5024 16.5078C13.1445 16.1498 12.5641 16.1498 12.2061 16.5078ZM14.7988 10.026L9.61334 15.2115C9.25536 15.5694 8.67496 15.5694 8.31698 15.2115C7.959 14.8535 7.959 14.2731 8.31698 13.9151L13.5024 8.72965C13.8604 8.37167 14.4408 8.37167 14.7988 8.72965C15.1568 9.08763 15.1568 9.66803 14.7988 10.026Z" fill="white"/>
</mask>
<g mask="url(#mask0_330_66)">
<path d="M-4 11.9705L11.5563 -3.58589L27.1127 11.9705L11.5563 27.5268L-4 11.9705Z" fill="#5D636D"/>
</g>
</g>
<defs>
<clipPath id="clip0_330_66">
<rect width="24" height="24" fill="white"/>
</clipPath>
</defs>
</svg>
