<svg width="24" height="24" viewBox="0 0 24 24" fill="none" xmlns="http://www.w3.org/2000/svg">
<path fill-rule="evenodd" clip-rule="evenodd" d="M15.3307 7.71457V12C15.3307 13.841 13.8383 15.3333 11.9974 15.3333C10.1564 15.3333 8.66406 13.841 8.66406 12V5.33333C8.66406 3.49238 10.1564 2 11.9974 2C12.0316 2 12.0657 2.00052 12.0997 2.00154C12.0343 2.32417 12 2.65808 12 3C12 3.22625 12.015 3.44898 12.0441 3.66727C12.029 3.66686 12.0139 3.66666 11.9987 3.66666C11.0782 3.66666 10.332 4.41285 10.332 5.33332V12C10.332 12.9205 11.0782 13.6667 11.9987 13.6667C12.9192 13.6667 13.6654 12.9205 13.6654 12V6.72568C14.1459 7.15606 14.7102 7.49484 15.3307 7.71457ZM16.9987 12V10.3333C16.9987 9.8731 17.3718 9.5 17.832 9.5C18.2923 9.5 18.6654 9.8731 18.6654 10.3333V12C18.6654 15.4001 16.12 18.2057 12.8307 18.6152V20.3333H15.332C15.7923 20.3333 16.1654 20.7064 16.1654 21.1667C16.1654 21.6269 15.7923 22 15.332 22H8.66536C8.20513 22 7.83203 21.6269 7.83203 21.1667C7.83203 20.7064 8.20513 20.3333 8.66536 20.3333H11.1641V18.6149C7.8761 18.2043 5.33203 15.3992 5.33203 12V10.3333C5.33203 9.8731 5.70513 9.5 6.16536 9.5C6.6256 9.5 6.9987 9.8731 6.9987 10.3333V12C6.9987 14.7614 9.23727 17 11.9987 17C14.7601 17 16.9987 14.7614 16.9987 12Z" fill="#5D636D"/>
<path d="M20 3C20 4.65685 18.6569 6 17 6C15.3431 6 14 4.65685 14 3C14 1.34315 15.3431 0 17 0C18.6569 0 20 1.34315 20 3Z" fill="#5D636D"/>
</svg>
