<svg width="24" height="24" viewBox="0 0 24 24" fill="none" xmlns="http://www.w3.org/2000/svg">
<path fill-rule="evenodd" clip-rule="evenodd" d="M12.0997 2.00154C12.0657 2.00052 12.0316 2 11.9974 2C10.1564 2 8.66406 3.49238 8.66406 5.33333V12C8.66406 13.841 10.1564 15.3333 11.9974 15.3333C13.8383 15.3333 15.3307 13.841 15.3307 12V7.71457C13.3901 7.02744 12 5.17606 12 3C12 2.65808 12.0343 2.32417 12.0997 2.00154ZM16.9987 10.3333V12C16.9987 14.7614 14.7601 17 11.9987 17C9.23727 17 6.9987 14.7614 6.9987 12V10.3333C6.9987 9.8731 6.6256 9.5 6.16536 9.5C5.70513 9.5 5.33203 9.8731 5.33203 10.3333V12C5.33203 15.3992 7.8761 18.2043 11.1641 18.6149V20.3333H8.66536C8.20513 20.3333 7.83203 20.7064 7.83203 21.1667C7.83203 21.6269 8.20513 22 8.66536 22H15.332C15.7923 22 16.1654 21.6269 16.1654 21.1667C16.1654 20.7064 15.7923 20.3333 15.332 20.3333H12.8307V18.6152C16.12 18.2057 18.6654 15.4001 18.6654 12V10.3333C18.6654 9.8731 18.2923 9.5 17.832 9.5C17.3718 9.5 16.9987 9.8731 16.9987 10.3333Z" fill="#5D636D"/>
<path d="M20 3C20 4.65685 18.6569 6 17 6C15.3431 6 14 4.65685 14 3C14 1.34315 15.3431 0 17 0C18.6569 0 20 1.34315 20 3Z" fill="#5D636D"/>
</svg>
