<svg width="24" height="24" viewBox="0 0 24 24" fill="none" xmlns="http://www.w3.org/2000/svg">
<path fill-rule="evenodd" clip-rule="evenodd" d="M15.332 5.33333C15.332 3.49238 13.8396 2 11.9987 2C10.1577 2 8.66536 3.49238 8.66536 5.33333V12C8.66536 13.841 10.1577 15.3333 11.9987 15.3333C13.8396 15.3333 15.332 13.841 15.332 12V5.33333ZM16.9987 12V10.3333C16.9987 9.8731 17.3718 9.5 17.832 9.5C18.2923 9.5 18.6654 9.8731 18.6654 10.3333V12C18.6654 15.3997 16.1206 18.205 12.832 18.6151V20.3333H15.332C15.7923 20.3333 16.1654 20.7064 16.1654 21.1667C16.1654 21.6269 15.7923 22 15.332 22H8.66536C8.20513 22 7.83203 21.6269 7.83203 21.1667C7.83203 20.7064 8.20513 20.3333 8.66536 20.3333H11.1654V18.6151C7.87677 18.205 5.33203 15.3997 5.33203 12V10.3333C5.33203 9.8731 5.70513 9.5 6.16536 9.5C6.6256 9.5 6.9987 9.8731 6.9987 10.3333V12C6.9987 14.7614 9.23727 17 11.9987 17C14.7601 17 16.9987 14.7614 16.9987 12Z" fill="#5D636D"/>
<mask id="mask0_5889_104155" style="mask-type:alpha" maskUnits="userSpaceOnUse" x="5" y="2" width="14" height="20">
<path fill-rule="evenodd" clip-rule="evenodd" d="M11.9987 2C13.8396 2 15.332 3.49238 15.332 5.33333V12C15.332 13.841 13.8396 15.3333 11.9987 15.3333C10.1577 15.3333 8.66536 13.841 8.66536 12V5.33333C8.66536 3.49238 10.1577 2 11.9987 2ZM16.9987 10.3333V12C16.9987 14.7614 14.7601 17 11.9987 17C9.23727 17 6.9987 14.7614 6.9987 12V10.3333C6.9987 9.8731 6.6256 9.5 6.16536 9.5C5.70513 9.5 5.33203 9.8731 5.33203 10.3333V12C5.33203 15.3997 7.87677 18.205 11.1654 18.6151V20.3333H8.66536C8.20513 20.3333 7.83203 20.7064 7.83203 21.1667C7.83203 21.6269 8.20513 22 8.66536 22H15.332C15.7923 22 16.1654 21.6269 16.1654 21.1667C16.1654 20.7064 15.7923 20.3333 15.332 20.3333H12.832V18.6151C16.1206 18.205 18.6654 15.3997 18.6654 12V10.3333C18.6654 9.8731 18.2923 9.5 17.832 9.5C17.3718 9.5 16.9987 9.8731 16.9987 10.3333ZM10.332 5.33332C10.332 4.41285 11.0782 3.66666 11.9987 3.66666C12.9192 3.66666 13.6654 4.41285 13.6654 5.33332V12C13.6654 12.9205 12.9192 13.6667 11.9987 13.6667C11.0782 13.6667 10.332 12.9205 10.332 12V5.33332Z" fill="white"/>
</mask>
<g mask="url(#mask0_5889_104155)">
<rect x="2" y="2" width="20" height="20" fill="#5D636D"/>
</g>
</svg>
