<svg width="24" height="24" viewBox="0 0 24 24" fill="none" xmlns="http://www.w3.org/2000/svg">
<path fill-rule="evenodd" clip-rule="evenodd" d="M9.66077 10.2613C9.97454 10.2204 10.2215 9.97343 10.2624 9.65966L10.7558 5.87706C10.8056 5.49494 10.5363 5.14476 10.1542 5.09492C9.77204 5.04508 9.42186 5.31444 9.37202 5.69656L9.06078 8.08275L5.61344 4.63541C5.34095 4.36292 4.89916 4.36293 4.62667 4.63541C4.35419 4.9079 4.35419 5.34969 4.62667 5.62218L8.06644 9.06194L5.69768 9.37091C5.31556 9.42075 5.04619 9.77093 5.09603 10.153C5.14587 10.5352 5.49605 10.8045 5.87817 10.7547L9.66077 10.2613Z" fill="#5D636D"/>
<path fill-rule="evenodd" clip-rule="evenodd" d="M10.2596 14.3402C10.2187 14.0264 9.97172 13.7795 9.65795 13.7386L5.87535 13.2452C5.49323 13.1953 5.14305 13.4647 5.09321 13.8468C5.04337 14.2289 5.31273 14.5791 5.69485 14.629L8.07967 14.94L4.63404 18.3856C4.36156 18.6581 4.36156 19.0999 4.63404 19.3724C4.90653 19.6449 5.34832 19.6449 5.62081 19.3724L9.06005 15.9332L9.3692 18.3033C9.41904 18.6854 9.76922 18.9548 10.1513 18.9049C10.5335 18.8551 10.8028 18.5049 10.753 18.1228L10.2596 14.3402Z" fill="#5D636D"/>
<path fill-rule="evenodd" clip-rule="evenodd" d="M13.7404 9.65955C13.7813 9.97332 14.0283 10.2203 14.342 10.2612L18.1247 10.7546C18.5068 10.8044 18.8569 10.5351 18.9068 10.1529C18.9566 9.77082 18.6873 9.42064 18.3051 9.3708L15.9205 9.05975L19.3661 5.61412C19.6386 5.34163 19.6386 4.89984 19.3661 4.62735C19.0936 4.35487 18.6518 4.35487 18.3793 4.62735L14.94 8.06671L14.6308 5.69645C14.581 5.31433 14.2308 5.04497 13.8487 5.09481C13.4665 5.14465 13.1972 5.49483 13.247 5.87695L13.7404 9.65955Z" fill="#5D636D"/>
<path fill-rule="evenodd" clip-rule="evenodd" d="M14.3392 13.7387C14.0255 13.7796 13.7785 14.0266 13.7376 14.3403L13.2442 18.1229C13.1944 18.5051 13.4637 18.8552 13.8458 18.9051C14.228 18.9549 14.5781 18.6856 14.628 18.3034L14.9392 15.917L18.3866 19.3643C18.659 19.6368 19.1008 19.6368 19.3733 19.3643C19.6458 19.0919 19.6458 18.6501 19.3733 18.3776L15.9338 14.938L18.3023 14.6291C18.6844 14.5792 18.9538 14.2291 18.904 13.847C18.8541 13.4648 18.504 13.1955 18.1218 13.2453L14.3392 13.7387Z" fill="#5D636D"/>
</svg>
