<svg width="24" height="24" viewBox="0 0 24 24" fill="none" xmlns="http://www.w3.org/2000/svg">
<path d="M14.195 22.9998H13.5144C10.5369 22.7882 7.7654 21.4468 5.80111 19.2666C3.83681 17.0864 2.83805 14.2432 3.02144 11.3537C3.1696 8.57356 4.40739 5.95335 6.48169 4.02882C8.55599 2.10429 11.3101 1.02083 14.1809 1L15.5137 1L14.6062 1.82499C13.0934 3.20096 12.0155 4.96584 11.4983 6.91358C10.981 8.86133 11.0459 10.9116 11.6852 12.8249C12.311 14.7254 13.4848 16.4125 15.0678 17.6868C16.6507 18.9611 18.5768 19.7694 20.6184 20.0161L21.8521 20.1536L20.8595 20.8686C18.9369 22.2644 16.5967 23.0128 14.195 22.9998ZM13.0323 2.01749C10.4857 2.33403 8.15079 3.55581 6.47997 5.44616C4.80914 7.3365 3.92128 9.76088 3.98836 12.2497C4.05544 14.7385 5.07268 17.1146 6.84305 18.9177C8.61342 20.7209 11.0109 21.8227 13.5711 22.0098C15.5521 22.1338 17.5263 21.684 19.243 20.7174C17.2693 20.2591 15.4502 19.3165 13.9604 17.9802C12.4705 16.6438 11.3599 14.9586 10.7352 13.0862C10.1201 11.2035 10.0082 9.20026 10.41 7.26423C10.8118 5.3282 11.7141 3.52284 13.0323 2.01749Z" fill="#5D636D"/>
</svg>
