<svg width="24" height="24" viewBox="0 0 24 24" fill="none" xmlns="http://www.w3.org/2000/svg">
<path fill-rule="evenodd" clip-rule="evenodd" d="M5.63508 18.433C2.12164 14.9185 2.12164 9.2215 5.63508 5.707C6.02554 5.31642 6.02545 4.68325 5.63486 4.29279C5.24428 3.90232 4.61112 3.90242 4.22065 4.293C-0.0735503 8.5885 -0.0735503 15.5515 4.22065 19.847C4.61112 20.2376 5.24428 20.2377 5.63486 19.8472C6.02545 19.4567 6.02554 18.8236 5.63508 18.433ZM18.3609 19.8472C17.9703 19.4567 17.9702 18.8236 18.3607 18.433C21.8741 14.9185 21.8741 9.2215 18.3607 5.707C17.9702 5.31642 17.9703 4.68325 18.3609 4.29279C18.7514 3.90232 19.3846 3.90242 19.7751 4.293C24.0693 8.5885 24.0693 15.5515 19.7751 19.847C19.3846 20.2376 18.7514 20.2377 18.3609 19.8472ZM8.46458 15.6025C7.52569 14.6647 6.99814 13.392 6.99814 12.065C6.99814 10.738 7.52569 9.46534 8.46458 8.5275C8.85532 8.13719 8.85567 7.50403 8.46536 7.11329C8.07506 6.72255 7.44189 6.72219 7.05115 7.1125C5.73671 8.42548 4.99814 10.2071 4.99814 12.065C4.99814 13.9229 5.73671 15.7045 7.05115 17.0175C7.44189 17.4078 8.07506 17.4075 8.46536 17.0167C8.85567 16.626 8.85532 15.9928 8.46458 15.6025ZM16.9976 12.075C16.9976 10.748 16.47 9.47534 15.5312 8.5375C15.1404 8.14719 15.1401 7.51403 15.5304 7.12329C15.9207 6.73255 16.5538 6.73219 16.9446 7.1225C18.259 8.43548 18.9976 10.2171 18.9976 12.075C18.9976 13.9329 18.259 15.7145 16.9446 17.0275C16.5538 17.4178 15.9207 17.4175 15.5304 17.0267C15.1401 16.636 15.1404 16.0028 15.5312 15.6125C16.47 14.6747 16.9976 13.402 16.9976 12.075ZM8.99786 12.07C8.99786 13.7269 10.341 15.07 11.9979 15.07C13.6547 15.07 14.9979 13.7269 14.9979 12.07C14.9979 10.4131 13.6547 9.07 11.9979 9.07C10.341 9.07 8.99786 10.4131 8.99786 12.07ZM12.9979 12.07C12.9979 12.6223 12.5501 13.07 11.9979 13.07C11.4456 13.07 10.9979 12.6223 10.9979 12.07C10.9979 11.5177 11.4456 11.07 11.9979 11.07C12.5501 11.07 12.9979 11.5177 12.9979 12.07Z" fill="#5D636D"/>
<mask id="mask0_387_8743" style="mask-type:alpha" maskUnits="userSpaceOnUse" x="1" y="4" width="22" height="17">
<path fill-rule="evenodd" clip-rule="evenodd" d="M5.63508 18.433C2.12164 14.9185 2.12164 9.2215 5.63508 5.707C6.02554 5.31642 6.02545 4.68325 5.63486 4.29279C5.24428 3.90232 4.61112 3.90242 4.22065 4.293C-0.0735503 8.5885 -0.0735503 15.5515 4.22065 19.847C4.61112 20.2376 5.24428 20.2377 5.63486 19.8472C6.02545 19.4567 6.02554 18.8236 5.63508 18.433ZM18.3609 19.8472C17.9703 19.4567 17.9702 18.8236 18.3607 18.433C21.8741 14.9185 21.8741 9.2215 18.3607 5.707C17.9702 5.31642 17.9703 4.68325 18.3609 4.29279C18.7514 3.90232 19.3846 3.90242 19.7751 4.293C24.0693 8.5885 24.0693 15.5515 19.7751 19.847C19.3846 20.2376 18.7514 20.2377 18.3609 19.8472ZM8.46458 15.6025C7.52569 14.6647 6.99814 13.392 6.99814 12.065C6.99814 10.738 7.52569 9.46534 8.46458 8.5275C8.85532 8.13719 8.85567 7.50403 8.46536 7.11329C8.07506 6.72255 7.44189 6.72219 7.05115 7.1125C5.73671 8.42548 4.99814 10.2071 4.99814 12.065C4.99814 13.9229 5.73671 15.7045 7.05115 17.0175C7.44189 17.4078 8.07506 17.4075 8.46536 17.0167C8.85567 16.626 8.85532 15.9928 8.46458 15.6025ZM16.9976 12.075C16.9976 10.748 16.47 9.47534 15.5312 8.5375C15.1404 8.14719 15.1401 7.51403 15.5304 7.12329C15.9207 6.73255 16.5538 6.73219 16.9446 7.1225C18.259 8.43548 18.9976 10.2171 18.9976 12.075C18.9976 13.9329 18.259 15.7145 16.9446 17.0275C16.5538 17.4178 15.9207 17.4175 15.5304 17.0267C15.1401 16.636 15.1404 16.0028 15.5312 15.6125C16.47 14.6747 16.9976 13.402 16.9976 12.075ZM8.99786 12.07C8.99786 13.7269 10.341 15.07 11.9979 15.07C13.6547 15.07 14.9979 13.7269 14.9979 12.07C14.9979 10.4131 13.6547 9.07 11.9979 9.07C10.341 9.07 8.99786 10.4131 8.99786 12.07ZM12.9979 12.07C12.9979 12.6223 12.5501 13.07 11.9979 13.07C11.4456 13.07 10.9979 12.6223 10.9979 12.07C10.9979 11.5177 11.4456 11.07 11.9979 11.07C12.5501 11.07 12.9979 11.5177 12.9979 12.07Z" fill="white"/>
</mask>
<g mask="url(#mask0_387_8743)">
<rect width="24" height="24" fill="#5D636D"/>
</g>
</svg>
