<svg width="24" height="24" viewBox="0 0 24 24" fill="none" xmlns="http://www.w3.org/2000/svg">
<path fill-rule="evenodd" clip-rule="evenodd" d="M4 17V18C4 18.5523 4.44772 19 5 19H21C21.5523 19 22 18.5523 22 18V8C22 7.44772 21.5523 7 21 7H20V8.5H20.5V17.5H5.5V17H4Z" fill="#5D636D"/>
<path fill-rule="evenodd" clip-rule="evenodd" d="M3.5 6.5V15.5H18.5V6.5H3.5ZM3 5C2.44772 5 2 5.44772 2 6V16C2 16.5523 2.44772 17 3 17H19C19.5523 17 20 16.5523 20 16V6C20 5.44772 19.5523 5 19 5H3Z" fill="#5D636D"/>
<path d="M14 11L9.5 13.5981L9.5 8.40192L14 11Z" fill="#5D636D"/>
</svg>
