<svg width="24" height="24" viewBox="0 0 24 24" fill="none" xmlns="http://www.w3.org/2000/svg">
<path fill-rule="evenodd" clip-rule="evenodd" d="M16.1924 4.19238L14 2H6C4.9 2 4.01 2.9 4.01 4L4.00226 16.3825L8 12.3848V12H8.38477L13 7.38477V3.5L14.9424 5.44238L16.1924 4.19238ZM14.2132 9H14.2134L16.3567 6.85669L16.3566 6.8566L17.6066 5.6066L17.6067 5.60669L19.7988 3.41454L21.2131 4.82875L19.0209 7.0209L20 8V20C20 21.1 19.1 22 18 22H5.99C5.45188 22 4.96401 21.7846 4.60601 21.4358L2.82828 23.2135L1.41406 21.7993L4.00049 19.2129V19.2127L9.21319 14H9.21338L11.2134 12H11.2132L14.2132 9ZM10.0418 16L8.04181 18H16V16H10.0418ZM14.0418 12L12.0418 14H16V12H14.0418ZM17.7709 8.2709L18.5 9H17.0418L17.7709 8.2709Z" fill="#5D636D"/>
</svg>
