<svg width="24" height="24" viewBox="0 0 24 24" fill="none" xmlns="http://www.w3.org/2000/svg">
<path fill-rule="evenodd" clip-rule="evenodd" d="M18 3.66667H6C5.72386 3.66667 5.5 3.9154 5.5 4.22222V19.7778C5.5 20.0846 5.72386 20.3333 6 20.3333H18C18.2761 20.3333 18.5 20.0846 18.5 19.7778V4.22222C18.5 3.9154 18.2761 3.66667 18 3.66667ZM6 2C4.89543 2 4 2.99492 4 4.22222V19.7778C4 21.0051 4.89543 22 6 22H18C19.1046 22 20 21.0051 20 19.7778V4.22222C20 2.99492 19.1046 2 18 2H6Z" fill="#5D636D"/>
<path d="M8 8.7C8 8.3134 8.3134 8 8.7 8H15.3C15.6866 8 16 8.3134 16 8.7C16 9.0866 15.6866 9.4 15.3 9.4H8.7C8.3134 9.4 8 9.0866 8 8.7Z" fill="#5D636D"/>
<path d="M8 14.7C8 14.3134 8.3134 14 8.7 14H12.3C12.6866 14 13 14.3134 13 14.7C13 15.0866 12.6866 15.4 12.3 15.4H8.7C8.3134 15.4 8 15.0866 8 14.7Z" fill="#5D636D"/>
<path d="M8 11.7C8 11.3134 8.3134 11 8.7 11H15.3C15.6866 11 16 11.3134 16 11.7C16 12.0866 15.6866 12.4 15.3 12.4H8.7C8.3134 12.4 8 12.0866 8 11.7Z" fill="#5D636D"/>
</svg>
