<svg width="24" height="24" viewBox="0 0 24 24" fill="none" xmlns="http://www.w3.org/2000/svg">
<path fill-rule="evenodd" clip-rule="evenodd" d="M15.9997 3.63736C15.5961 3.23534 14.9431 3.23661 14.541 3.64019L4.43981 13.7806C4.28599 13.935 4.18504 14.1342 4.15144 14.3495L3.34437 19.5223C3.29349 19.8484 3.40175 20.1792 3.63561 20.4121C3.86947 20.645 4.20068 20.752 4.5266 20.6998L9.69575 19.8721L9.53266 18.8536L10.2634 19.5816L20.3647 9.44117C20.5577 9.24735 20.6659 8.98478 20.6654 8.71121C20.6648 8.43765 20.5556 8.17549 20.3618 7.98243L15.9997 3.63736ZM18.1752 8.71605L9.03851 17.8881L5.60138 18.4385L6.13458 15.021L8.89162 17.7781L9.62113 17.0486L6.85335 14.2808L15.2746 5.82685L18.1752 8.71605Z" fill="#5D636D"/>
</svg>
