<svg width="24" height="24" viewBox="0 0 24 24" fill="none" xmlns="http://www.w3.org/2000/svg">
<path fill-rule="evenodd" clip-rule="evenodd" d="M9.08333 12.0001C6.78215 12.0001 4.91667 10.1346 4.91667 7.83342C4.91667 5.53223 6.78215 3.66675 9.08333 3.66675C11.3845 3.66675 13.25 5.53223 13.25 7.83342C13.25 10.1346 11.3845 12.0001 9.08333 12.0001ZM16.1667 19.5001V17.8334C16.1667 15.5322 14.3012 13.6667 12 13.6667H6.16667C3.86548 13.6667 2 15.5322 2 17.8334V19.5001C2 19.9603 2.3731 20.3334 2.83333 20.3334C3.29357 20.3334 3.66667 19.9603 3.66667 19.5001V17.8334C3.66667 16.4527 4.78595 15.3334 6.16667 15.3334H12C13.3807 15.3334 14.5 16.4527 14.5 17.8334V19.5001C14.5 19.9603 14.8731 20.3334 15.3333 20.3334C15.7936 20.3334 16.1667 19.9603 16.1667 19.5001ZM17.8333 13.6667V12.0001H16.1667C15.7064 12.0001 15.3333 11.627 15.3333 11.1667C15.3333 10.7065 15.7064 10.3334 16.1667 10.3334H17.8333V8.66674C17.8333 8.20651 18.2064 7.83341 18.6667 7.83341C19.1269 7.83341 19.5 8.20651 19.5 8.66674V10.3334H21.1667C21.6269 10.3334 22 10.7065 22 11.1667C22 11.627 21.6269 12.0001 21.1667 12.0001H19.5V13.6667C19.5 14.127 19.1269 14.5001 18.6667 14.5001C18.2064 14.5001 17.8333 14.127 17.8333 13.6667ZM11.5833 7.83341C11.5833 9.21412 10.464 10.3334 9.08333 10.3334C7.70262 10.3334 6.58333 9.21412 6.58333 7.83341C6.58333 6.4527 7.70262 5.33341 9.08333 5.33341C10.464 5.33341 11.5833 6.4527 11.5833 7.83341Z" fill="#5D636D"/>
<mask id="mask0_315_55" style="mask-type:alpha" maskUnits="userSpaceOnUse" x="2" y="3" width="20" height="18">
<path fill-rule="evenodd" clip-rule="evenodd" d="M9.08333 12.0001C6.78215 12.0001 4.91667 10.1346 4.91667 7.83342C4.91667 5.53223 6.78215 3.66675 9.08333 3.66675C11.3845 3.66675 13.25 5.53223 13.25 7.83342C13.25 10.1346 11.3845 12.0001 9.08333 12.0001ZM16.1667 19.5001V17.8334C16.1667 15.5322 14.3012 13.6667 12 13.6667H6.16667C3.86548 13.6667 2 15.5322 2 17.8334V19.5001C2 19.9603 2.3731 20.3334 2.83333 20.3334C3.29357 20.3334 3.66667 19.9603 3.66667 19.5001V17.8334C3.66667 16.4527 4.78595 15.3334 6.16667 15.3334H12C13.3807 15.3334 14.5 16.4527 14.5 17.8334V19.5001C14.5 19.9603 14.8731 20.3334 15.3333 20.3334C15.7936 20.3334 16.1667 19.9603 16.1667 19.5001ZM17.8333 13.6667V12.0001H16.1667C15.7064 12.0001 15.3333 11.627 15.3333 11.1667C15.3333 10.7065 15.7064 10.3334 16.1667 10.3334H17.8333V8.66674C17.8333 8.20651 18.2064 7.83341 18.6667 7.83341C19.1269 7.83341 19.5 8.20651 19.5 8.66674V10.3334H21.1667C21.6269 10.3334 22 10.7065 22 11.1667C22 11.627 21.6269 12.0001 21.1667 12.0001H19.5V13.6667C19.5 14.127 19.1269 14.5001 18.6667 14.5001C18.2064 14.5001 17.8333 14.127 17.8333 13.6667ZM11.5833 7.83341C11.5833 9.21412 10.464 10.3334 9.08333 10.3334C7.70262 10.3334 6.58333 9.21412 6.58333 7.83341C6.58333 6.4527 7.70262 5.33341 9.08333 5.33341C10.464 5.33341 11.5833 6.4527 11.5833 7.83341Z" fill="white"/>
</mask>
<g mask="url(#mask0_315_55)">
<rect x="2" y="2" width="20" height="20" fill="#5D636D"/>
</g>
</svg>
