<svg width="24" height="24" viewBox="0 0 24 24" fill="none" xmlns="http://www.w3.org/2000/svg">
<path d="M2.66652 21.9996C2.53469 21.9996 2.40582 21.9604 2.29622 21.8872C2.18661 21.8139 2.10119 21.7098 2.05074 21.588C2.00029 21.4662 1.98709 21.3322 2.0128 21.2029C2.03851 21.0736 2.10198 20.9548 2.19519 20.8616L8.86182 14.195C8.98756 14.0735 9.15596 14.0063 9.33075 14.0078C9.50555 14.0094 9.67276 14.0795 9.79636 14.2031C9.91997 14.3267 9.99008 14.4939 9.9916 14.6687C9.99312 14.8435 9.92592 15.0119 9.80449 15.1376L3.13785 21.8042C3.01286 21.9293 2.84332 21.9995 2.66652 21.9996Z" fill="#5D636D"/>
<path d="M14.0014 18.5512C13.6662 18.5518 13.3342 18.4862 13.0245 18.3581C12.7148 18.2299 12.4335 18.0418 12.1967 17.8046L6.19673 11.8046C5.71811 11.326 5.44922 10.6768 5.44922 9.99992C5.44922 9.32305 5.71811 8.67389 6.19673 8.19527C6.67536 7.71664 7.32451 7.44775 8.00139 7.44775C8.67827 7.44775 9.32742 7.71664 9.80605 8.19527L15.806 14.1952C16.1631 14.552 16.4063 15.0068 16.5048 15.5018C16.6033 15.9969 16.5528 16.5101 16.3596 16.9764C16.1664 17.4427 15.8392 17.8413 15.4194 18.1216C14.9996 18.4019 14.5061 18.5515 14.0014 18.5512ZM8.00139 8.78126C7.76028 8.78116 7.52456 8.85257 7.32405 8.98647C7.12355 9.12037 6.96726 9.31074 6.87498 9.53349C6.7827 9.75624 6.75856 10.0014 6.80563 10.2378C6.8527 10.4743 6.96885 10.6915 7.13939 10.8619L13.1394 16.8619C13.3696 17.0825 13.6771 17.2041 13.9959 17.2006C14.3148 17.1972 14.6196 17.069 14.845 16.8436C15.0705 16.6181 15.1987 16.3133 15.2021 15.9945C15.2055 15.6756 15.0839 15.3682 14.8634 15.1379L8.86339 9.13793C8.75023 9.02469 8.61585 8.9349 8.46793 8.8737C8.32001 8.81249 8.16147 8.78108 8.00139 8.78126Z" fill="#5D636D"/>
<path d="M14.6652 14.6666C14.4884 14.6665 14.3189 14.5963 14.1939 14.4712L9.52722 9.80458C9.40224 9.67956 9.33203 9.51002 9.33203 9.33325C9.33203 9.15647 9.40224 8.98694 9.52722 8.86192L13.5272 4.86194C13.6522 4.73696 13.8218 4.66675 13.9985 4.66675C14.1753 4.66675 14.3448 4.73696 14.4699 4.86194L19.1365 9.52858C19.2615 9.6536 19.3317 9.82314 19.3317 9.99991C19.3317 10.1767 19.2615 10.3462 19.1365 10.4712L15.1365 14.4712C15.0115 14.5963 14.842 14.6665 14.6652 14.6666ZM10.9412 9.33325L14.6652 13.0572L17.7225 9.99991L13.9985 6.27593L10.9412 9.33325Z" fill="#5D636D"/>
<path d="M19.3345 11.3331C19.1577 11.3331 18.9881 11.2628 18.8631 11.1378L12.8632 5.13784C12.7382 5.01282 12.668 4.84329 12.668 4.66651C12.668 4.48974 12.7382 4.3202 12.8632 4.19518L14.8631 2.19519C14.9882 2.07021 15.1577 2 15.3345 2C15.5113 2 15.6808 2.07021 15.8058 2.19519L21.8058 8.19516C21.9308 8.32018 22.001 8.48972 22.001 8.66649C22.001 8.84327 21.9308 9.0128 21.8058 9.13782L19.8058 11.1378C19.6808 11.2628 19.5113 11.3331 19.3345 11.3331ZM14.2772 4.66651L19.3345 9.72382L20.3918 8.66649L15.3345 3.60918L14.2772 4.66651Z" fill="#5D636D"/>
</svg>
