<svg width="24" height="24" viewBox="0 0 24 24" fill="none" xmlns="http://www.w3.org/2000/svg">
<mask id="path-1-inside-1_316_143" fill="white">
<path fill-rule="evenodd" clip-rule="evenodd" d="M21.8529 10.6004L3.1262 4.12612L9.60047 22.8529L9.60079 22.8525L13.7373 14.7372L21.8526 10.6007L21.8529 10.6004Z"/>
</mask>
<path d="M3.1262 4.12612L3.7797 2.23589L-0.108136 0.891781L1.23598 4.77961L3.1262 4.12612ZM21.8529 10.6004L23.2672 12.0146L25.5272 9.75452L22.5064 8.71016L21.8529 10.6004ZM9.60047 22.8529L7.71024 23.5064L8.7546 26.5271L11.0147 24.2671L9.60047 22.8529ZM9.60079 22.8525L11.015 24.2667L11.2389 24.0429L11.3827 23.7608L9.60079 22.8525ZM13.7373 14.7372L12.829 12.9553L12.2503 13.2503L11.9554 13.8289L13.7373 14.7372ZM21.8526 10.6007L22.7609 12.3826L23.0429 12.2388L23.2668 12.0149L21.8526 10.6007ZM2.47271 6.01634L21.1994 12.4906L22.5064 8.71016L3.7797 2.23589L2.47271 6.01634ZM11.4907 22.1994L5.01642 3.47262L1.23598 4.77961L7.71024 23.5064L11.4907 22.1994ZM8.18657 21.4383L8.18625 21.4386L11.0147 24.2671L11.015 24.2667L8.18657 21.4383ZM11.3827 23.7608L15.5191 15.6454L11.9554 13.8289L7.81891 21.9443L11.3827 23.7608ZM14.6455 16.5191L22.7609 12.3826L20.9444 8.81883L12.829 12.9553L14.6455 16.5191ZM20.4387 9.18617L20.4384 9.18649L23.2668 12.0149L23.2672 12.0146L20.4387 9.18617Z" fill="#5D636D" mask="url(#path-1-inside-1_316_143)"/>
<g filter="url(#filter0_d_316_143)">
<circle cx="13.5" cy="15.5" r="1.5" fill="#FA4D56"/>
</g>
<defs>
<filter id="filter0_d_316_143" x="8" y="10" width="11" height="11" filterUnits="userSpaceOnUse" color-interpolation-filters="sRGB">
<feFlood flood-opacity="0" result="BackgroundImageFix"/>
<feColorMatrix in="SourceAlpha" type="matrix" values="0 0 0 0 0 0 0 0 0 0 0 0 0 0 0 0 0 0 127 0" result="hardAlpha"/>
<feMorphology radius="2" operator="dilate" in="SourceAlpha" result="effect1_dropShadow_316_143"/>
<feOffset/>
<feGaussianBlur stdDeviation="1"/>
<feColorMatrix type="matrix" values="0 0 0 0 0.980392 0 0 0 0 0.301961 0 0 0 0 0.337255 0 0 0 1 0"/>
<feBlend mode="normal" in2="BackgroundImageFix" result="effect1_dropShadow_316_143"/>
<feBlend mode="normal" in="SourceGraphic" in2="effect1_dropShadow_316_143" result="shape"/>
</filter>
</defs>
</svg>
