<svg width="24" height="24" viewBox="0 0 24 24" fill="none" xmlns="http://www.w3.org/2000/svg">
<path fill-rule="evenodd" clip-rule="evenodd" d="M14 5.44444H10C9.44771 5.44444 9 5.99165 9 6.66667V10H15V6.66667C15 5.99165 14.5523 5.44444 14 5.44444ZM7 6.66667V10H6C4.89543 10 4 10.8954 4 12V19C4 20.1046 4.89543 21 6 21H18C19.1046 21 20 20.1046 20 19V12C20 10.8954 19.1046 10 18 10H17V6.66667C17 4.64162 15.6569 3 14 3H10C8.34315 3 7 4.64162 7 6.66667ZM14 15C14 15.8708 13.4435 16.6116 12.6667 16.8862V17.6667C12.6667 18.0349 12.3682 18.3333 12 18.3333C11.6318 18.3333 11.3333 18.0349 11.3333 17.6667V16.8862C10.5565 16.6116 10 15.8708 10 15C10 13.8954 10.8954 13 12 13C13.1046 13 14 13.8954 14 15Z" fill="#5D636D"/>
</svg>
