<svg width="24" height="24" viewBox="0 0 24 24" fill="none" xmlns="http://www.w3.org/2000/svg">
<path d="M4 5C4 4.44771 4.44772 4 5 4H10.2C10.7523 4 11.2 4.44772 11.2 5V10.2C11.2 10.7523 10.7523 11.2 10.2 11.2H5C4.44771 11.2 4 10.7523 4 10.2V5Z" fill="#5D636D"/>
<path d="M4 13.0996C4 12.5473 4.44772 12.0996 5 12.0996H10.2C10.7523 12.0996 11.2 12.5473 11.2 13.0996V18.2996C11.2 18.8519 10.7523 19.2996 10.2 19.2996H5C4.44771 19.2996 4 18.8519 4 18.2996V13.0996Z" fill="#5D636D"/>
<path d="M12.1016 5C12.1016 4.44771 12.5493 4 13.1016 4H18.3016C18.8539 4 19.3016 4.44772 19.3016 5V10.2C19.3016 10.7523 18.8539 11.2 18.3016 11.2H13.1016C12.5493 11.2 12.1016 10.7523 12.1016 10.2V5Z" fill="#5D636D"/>
<path fill-rule="evenodd" clip-rule="evenodd" d="M12.0969 12.0996V19.2996H19.2969V12.0996H12.0969ZM11.1969 10.2996C10.6998 10.2996 10.2969 10.7025 10.2969 11.1996V20.1996C10.2969 20.6966 10.6998 21.0996 11.1969 21.0996H20.1969C20.6939 21.0996 21.0969 20.6966 21.0969 20.1996V11.1996C21.0969 10.7025 20.6939 10.2996 20.1969 10.2996H11.1969Z" fill="#5D636D"/>
<path fill-rule="evenodd" clip-rule="evenodd" d="M9.39844 11.1999C9.39844 10.2058 10.2043 9.3999 11.1984 9.3999H20.1984C21.1926 9.3999 21.9984 10.2058 21.9984 11.1999V20.1999C21.9984 21.194 21.1926 21.9999 20.1984 21.9999H11.1984C10.2043 21.9999 9.39844 21.194 9.39844 20.1999V11.1999ZM10.2984 11.1999C10.2984 10.7028 10.7014 10.2999 11.1984 10.2999H20.1984C20.6955 10.2999 21.0984 10.7028 21.0984 11.1999V20.1999C21.0984 20.697 20.6955 21.0999 20.1984 21.0999H11.1984C10.7014 21.0999 10.2984 20.697 10.2984 20.1999V11.1999Z" fill="white"/>
</svg>
