<svg width="24" height="24" viewBox="0 0 24 24" fill="none" xmlns="http://www.w3.org/2000/svg">
<path fill-rule="evenodd" clip-rule="evenodd" d="M16.2939 14.5786H15.3905L15.0703 14.2699C16.191 12.9663 16.8656 11.2739 16.8656 9.43282C16.8656 5.32762 13.538 2 9.43282 2C5.32762 2 2 5.32762 2 9.43282C2 13.538 5.32762 16.8656 9.43282 16.8656C11.2739 16.8656 12.9663 16.191 14.2699 15.0703L14.5786 15.3905V16.2939L20.2962 22L22 20.2962L16.2939 14.5786ZM9.43288 14.5787C6.58554 14.5787 4.28708 12.2802 4.28708 9.43288C4.28708 6.58554 6.58554 4.28708 9.43288 4.28708C12.2802 4.28708 14.5787 6.58554 14.5787 9.43288C14.5787 12.2802 12.2802 14.5787 9.43288 14.5787Z" fill="#5D636D"/>
</svg>
