<svg width="24" height="24" viewBox="0 0 24 24" fill="none" xmlns="http://www.w3.org/2000/svg">
<path d="M8.33417 12.25L15.7836 7.39166C16.2718 7.0733 16.2718 6.55713 15.7836 6.23877C15.2955 5.92041 14.504 5.92041 14.0159 6.23877L5.68252 11.6736C5.43845 11.8327 5.31641 12.0414 5.31641 12.25C5.31641 12.4586 5.43845 12.6673 5.68252 12.8264L14.0159 18.2612C14.504 18.5796 15.2955 18.5796 15.7836 18.2612C16.2718 17.9429 16.2718 17.4267 15.7836 17.1083L8.33417 12.25Z" fill="#5D636D"/>
<path d="M18.6484 6C18.6484 7.38071 17.5291 8.5 16.1484 8.5C14.7677 8.5 13.6484 7.38071 13.6484 6C13.6484 4.61929 14.7677 3.5 16.1484 3.5C17.5291 3.5 18.6484 4.61929 18.6484 6Z" fill="#5D636D"/>
<path d="M18.6484 18.5C18.6484 19.8807 17.5291 21 16.1484 21C14.7677 21 13.6484 19.8807 13.6484 18.5C13.6484 17.1193 14.7677 16 16.1484 16C17.5291 16 18.6484 17.1193 18.6484 18.5Z" fill="#5D636D"/>
<path d="M8.64844 11.8333C8.64844 13.214 7.52915 14.3333 6.14844 14.3333C4.76773 14.3333 3.64844 13.214 3.64844 11.8333C3.64844 10.4525 4.76773 9.33325 6.14844 9.33325C7.52915 9.33325 8.64844 10.4525 8.64844 11.8333Z" fill="#5D636D"/>
</svg>
