<svg width="24" height="24" viewBox="0 0 24 24" fill="none" xmlns="http://www.w3.org/2000/svg">
<g clip-path="url(#clip0_10857_216996)">
<path d="M11.0119 4.33735C11.1878 3.20942 12.8122 3.20942 12.9881 4.33735L13.3331 6.5503C13.4484 7.29018 14.3061 7.64545 14.9109 7.20385L16.7196 5.88303C17.6416 5.20981 18.7902 6.35844 18.117 7.28036L16.7962 9.08911C16.3545 9.69386 16.7098 10.5516 17.4497 10.6669L19.6626 11.0119C20.7906 11.1878 20.7906 12.8122 19.6626 12.9881L17.4497 13.3331C16.7098 13.4484 16.3545 14.3061 16.7962 14.9109L18.117 16.7196C18.7902 17.6416 17.6416 18.7902 16.7196 18.117L14.9109 16.7962C14.3061 16.3545 13.4484 16.7098 13.3331 17.4497L12.9881 19.6626C12.8122 20.7906 11.1878 20.7906 11.0119 19.6626L10.6669 17.4497C10.5516 16.7098 9.69386 16.3545 9.08911 16.7962L7.28036 18.117C6.35844 18.7902 5.2098 17.6416 5.88302 16.7196L7.20384 14.9109C7.64545 14.3061 7.29018 13.4484 6.5503 13.3331L4.33735 12.9881C3.20942 12.8122 3.20942 11.1878 4.33735 11.0119L6.5503 10.6669C7.29018 10.5516 7.64545 9.69386 7.20385 9.08911L5.88302 7.28036C5.20981 6.35844 6.35844 5.2098 7.28036 5.88302L9.08911 7.20384C9.69386 7.64545 10.5516 7.29018 10.6669 6.5503L11.0119 4.33735Z" fill="#5D636D"/>
</g>
<defs>
<clipPath id="clip0_10857_216996">
<rect width="24" height="24" fill="white"/>
</clipPath>
</defs>
</svg>
