<svg width="24" height="24" viewBox="0 0 24 24" fill="none" xmlns="http://www.w3.org/2000/svg">
<path fill-rule="evenodd" clip-rule="evenodd" d="M19 19L19 15L15 15L15 19L19 19ZM20 21C20.5523 21 21 20.5523 21 20L21 14C21 13.4477 20.5523 13 20 13L14 13C13.4477 13 13 13.4477 13 14L13 20C13 20.5523 13.4477 21 14 21L20 21Z" fill="#5D636D"/>
<path fill-rule="evenodd" clip-rule="evenodd" d="M19 9L19 5L15 5L15 9L19 9ZM20 11C20.5523 11 21 10.5523 21 10L21 4C21 3.44772 20.5523 3 20 3L14 3C13.4477 3 13 3.44772 13 4L13 10C13 10.5523 13.4477 11 14 11L20 11Z" fill="#5D636D"/>
<path fill-rule="evenodd" clip-rule="evenodd" d="M5 5V9H9V5H5ZM4 3C3.44772 3 3 3.44772 3 4V10C3 10.5523 3.44772 11 4 11H10C10.5523 11 11 10.5523 11 10V4C11 3.44772 10.5523 3 10 3H4Z" fill="#5D636D"/>
<path fill-rule="evenodd" clip-rule="evenodd" d="M5 15V19H9V15H5ZM4 13C3.44772 13 3 13.4477 3 14V20C3 20.5523 3.44772 21 4 21H10C10.5523 21 11 20.5523 11 20V14C11 13.4477 10.5523 13 10 13H4Z" fill="#5D636D"/>
</svg>
