<svg width="24" height="24" viewBox="0 0 24 24" fill="none" xmlns="http://www.w3.org/2000/svg">
<path fill-rule="evenodd" clip-rule="evenodd" d="M5 17V18C5 18.5523 5.44772 19 6 19H22C22.5523 19 23 18.5523 23 18V8C23 7.44772 22.5523 7 22 7H21V8.5H21.5V17.5H6.5V17H5Z" fill="#5D636D"/>
<path fill-rule="evenodd" clip-rule="evenodd" d="M3.5 5.5V14.5H18.5V5.5H3.5ZM3 4C2.44772 4 2 4.44772 2 5V15C2 15.5523 2.44772 16 3 16H19C19.5523 16 20 15.5523 20 15V5C20 4.44772 19.5523 4 19 4H3Z" fill="#5D636D"/>
</svg>
