<svg width="24" height="24" viewBox="0 0 24 24" fill="none" xmlns="http://www.w3.org/2000/svg">
<path fill-rule="evenodd" clip-rule="evenodd" d="M12.0686 23C12.0043 23 11.9406 22.9873 11.8812 22.9628C11.8218 22.9382 11.7678 22.9022 11.7223 22.8569C11.6769 22.8115 11.6408 22.7576 11.6162 22.6984C11.5916 22.6391 11.5789 22.5755 11.5789 22.5114V19.2175C11.5716 19.1487 11.5789 19.079 11.6003 19.0131C11.6217 18.9472 11.6568 18.8866 11.7032 18.8351C11.7497 18.7836 11.8064 18.7424 11.8699 18.7142C11.9333 18.686 12.002 18.6715 12.0714 18.6715C12.1408 18.6715 12.2095 18.686 12.2729 18.7142C12.3363 18.7424 12.3931 18.7836 12.4396 18.8351C12.486 18.8866 12.5211 18.9472 12.5425 19.0131C12.5639 19.079 12.5712 19.1487 12.5639 19.2175V22.5114C12.5639 22.576 12.551 22.64 12.5261 22.6996C12.5011 22.7593 12.4646 22.8134 12.4185 22.8588C12.3724 22.9043 12.3178 22.9401 12.2577 22.9644C12.1977 22.9886 12.1334 23.0007 12.0686 23ZM4.63442 19.9312C4.5924 19.9365 4.54988 19.9365 4.50786 19.9312C4.42465 19.9082 4.34891 19.8639 4.28815 19.8027C4.22739 19.7416 4.18372 19.6656 4.16148 19.5823C4.13923 19.4991 4.13918 19.4115 4.16133 19.3283C4.18348 19.245 4.22706 19.169 4.28775 19.1077L6.63742 16.7636C6.7304 16.6735 6.85448 16.6224 6.9841 16.6209C7.08017 16.6211 7.17403 16.6497 7.25373 16.7032C7.31533 16.7433 7.3671 16.7966 7.4052 16.8594C7.4433 16.9221 7.46676 16.9926 7.47384 17.0656C7.48137 17.1379 7.47242 17.2111 7.44764 17.2795C7.42287 17.348 7.38292 17.4099 7.33077 17.4608L4.9811 19.7885C4.88876 19.8796 4.76427 19.9308 4.63442 19.9312ZM19.4919 19.9312C19.4275 19.9316 19.3636 19.9192 19.3041 19.8947C19.2446 19.8702 19.1905 19.8341 19.1452 19.7885L16.7955 17.4444C16.7031 17.3518 16.6512 17.2264 16.6512 17.0958C16.6512 16.9651 16.7031 16.8398 16.7955 16.7472C16.889 16.6563 17.0144 16.6054 17.1449 16.6054C17.2755 16.6054 17.4008 16.6563 17.4944 16.7472L19.844 19.0913C19.9122 19.1607 19.9584 19.2486 19.9767 19.344C19.9951 19.4394 19.9848 19.5382 19.9472 19.6278C19.9097 19.7174 19.8464 19.794 19.7654 19.848C19.6844 19.902 19.5893 19.9309 19.4919 19.9312ZM12.1017 17.4828C11.0185 17.4839 9.9594 17.1644 9.05828 16.5649C8.15716 15.9654 7.45453 15.1126 7.03927 14.1146C6.62402 13.1166 6.51481 12.0182 6.72545 10.9582C6.93609 9.89829 7.45712 8.92449 8.22263 8.16002C8.98814 7.39556 9.96372 6.87478 11.026 6.66357C12.0882 6.45236 13.1894 6.56021 14.1902 6.97348C15.191 7.38675 16.0464 8.08686 16.6483 8.98524C17.2501 9.88363 17.5714 10.9399 17.5714 12.0205C17.5642 13.466 16.9858 14.8504 15.9617 15.873C14.9376 16.8957 13.5506 17.4741 12.1017 17.4828ZM12.1017 16.5001C12.9908 16.5012 13.8604 16.2392 14.6003 15.7473C15.3402 15.2554 15.9173 14.5556 16.2586 13.7365C16.5999 12.9173 16.69 12.0156 16.5176 11.1454C16.3452 10.2752 15.918 9.47546 15.29 8.84744C14.662 8.21942 13.8615 7.79128 12.9896 7.61715C12.1178 7.44303 11.2137 7.53075 10.3918 7.86921C9.56989 8.20767 8.86704 8.78168 8.37214 9.51865C7.87724 10.2556 7.6125 11.1224 7.61141 12.0095C7.6143 13.1977 8.08796 14.3366 8.9291 15.1778C9.77025 16.019 10.9107 16.4943 12.1017 16.5001ZM19.2552 12.5146C19.1862 12.5219 19.1164 12.5146 19.0503 12.4932C18.9843 12.4719 18.9235 12.4369 18.8719 12.3905C18.8202 12.3442 18.779 12.2876 18.7507 12.2243C18.7225 12.161 18.7079 12.0925 18.7079 12.0232C18.7079 11.954 18.7225 11.8855 18.7507 11.8222C18.779 11.7589 18.8202 11.7023 18.8719 11.656C18.9235 11.6096 18.9843 11.5746 19.0503 11.5533C19.1164 11.5319 19.1862 11.5246 19.2552 11.5319H22.5569C22.6785 11.5448 22.7911 11.6021 22.8729 11.6928C22.9547 11.7835 23 11.9012 23 12.0232C23 12.1453 22.9547 12.263 22.8729 12.3537C22.7911 12.4444 22.6785 12.5017 22.5569 12.5146H19.2552ZM1.54738 12.5146C1.47833 12.5219 1.40852 12.5146 1.34247 12.4932C1.27642 12.4719 1.21562 12.4369 1.164 12.3905C1.11238 12.3442 1.07111 12.2876 1.04285 12.2243C1.0146 12.161 1 12.0925 1 12.0232C1 11.954 1.0146 11.8855 1.04285 11.8222C1.07111 11.7589 1.11238 11.7023 1.164 11.656C1.21562 11.6096 1.27642 11.5746 1.34247 11.5533C1.40852 11.5319 1.47833 11.5246 1.54738 11.5319H4.84903C4.95051 11.531 5.04977 11.5616 5.13307 11.6194C5.21638 11.6772 5.27962 11.7594 5.31406 11.8547C5.3485 11.9499 5.35243 12.0535 5.32532 12.151C5.2982 12.2486 5.24137 12.3353 5.16269 12.3993C5.07446 12.4724 4.96373 12.5131 4.84903 12.5146H1.54738ZM17.1587 7.44206H17.0266C16.9436 7.41793 16.8681 7.37296 16.8074 7.31145C16.7467 7.24995 16.7028 7.17395 16.6799 7.09072C16.6582 7.00783 16.6584 6.92072 16.6806 6.83795C16.7028 6.75518 16.7462 6.67959 16.8065 6.6186L19.1562 4.23605C19.2016 4.19046 19.2556 4.15435 19.3151 4.12985C19.3746 4.10534 19.4385 4.09292 19.5029 4.09332C19.6003 4.09362 19.6954 4.12256 19.7764 4.17652C19.8574 4.23049 19.9207 4.30709 19.9582 4.39673C19.9958 4.48638 20.0061 4.58509 19.9877 4.68052C19.9694 4.77595 19.9232 4.86386 19.855 4.93325L17.5054 7.27188C17.4139 7.36497 17.2893 7.41824 17.1587 7.4201V7.44206ZM6.97859 7.44206C6.91386 7.44144 6.84989 7.42802 6.79038 7.40258C6.73088 7.37713 6.67702 7.34018 6.63192 7.29384L4.28775 4.95521C4.23862 4.90902 4.19947 4.85329 4.17271 4.79146C4.14595 4.72962 4.13215 4.66298 4.13215 4.59563C4.13215 4.52828 4.14595 4.46164 4.17271 4.3998C4.19947 4.33797 4.23862 4.28224 4.28775 4.23605C4.33312 4.19046 4.38715 4.15435 4.44667 4.12985C4.5062 4.10534 4.57003 4.09292 4.63442 4.09332C4.69891 4.09229 4.76292 4.10442 4.82254 4.12896C4.88215 4.15351 4.93611 4.18995 4.9811 4.23605L7.33627 6.58017C7.38186 6.62555 7.41803 6.67946 7.44271 6.73881C7.46739 6.79815 7.48009 6.86177 7.48009 6.92602C7.48009 6.99027 7.46739 7.05389 7.44271 7.11324C7.41803 7.17259 7.38186 7.22649 7.33627 7.27188C7.2914 7.32303 7.23653 7.36451 7.17503 7.39377C7.11352 7.42303 7.04668 7.43946 6.97859 7.44206ZM12.0686 5.334C11.9382 5.33256 11.8137 5.27986 11.722 5.18736C11.6303 5.09486 11.5789 4.97002 11.5789 4.83992V1.54608C11.5716 1.4772 11.5789 1.40755 11.6003 1.34166C11.6217 1.27577 11.6568 1.21511 11.7032 1.16361C11.7497 1.11212 11.8064 1.07094 11.8699 1.04275C11.9333 1.01457 12.002 1 12.0714 1C12.1408 1 12.2095 1.01457 12.2729 1.04275C12.3363 1.07094 12.3931 1.11212 12.4396 1.16361C12.486 1.21511 12.5211 1.27577 12.5425 1.34166C12.5639 1.40755 12.5712 1.4772 12.5639 1.54608V4.83992C12.5639 4.97096 12.5117 5.09663 12.4188 5.18929C12.326 5.28195 12.2 5.334 12.0686 5.334Z" fill="#5D636D"/>
</svg>
