<svg width="24" height="24" viewBox="0 0 24 24" fill="none" xmlns="http://www.w3.org/2000/svg">
<path fill-rule="evenodd" clip-rule="evenodd" d="M7.54752 21.5012C16.6042 21.5012 21.5578 13.9979 21.5578 7.49099C21.5578 7.27787 21.5578 7.06571 21.5434 6.85451C22.507 6.15745 23.3389 5.29441 24 4.30571C23.1013 4.70392 22.148 4.96504 21.1718 5.08043C22.1997 4.46507 22.9691 3.4972 23.3366 2.35691C22.3701 2.93051 21.3126 3.33467 20.2099 3.55211C18.3451 1.56923 15.226 1.47352 13.243 3.33832C11.9643 4.54091 11.4216 6.33294 11.8186 8.04299C7.85942 7.84446 4.17072 5.97448 1.6704 2.89835C0.363456 5.14821 1.03104 8.02657 3.19488 9.47147C2.41123 9.44824 1.64477 9.23685 0.96 8.85515V8.91755C0.960672 11.2615 2.61293 13.2803 4.9104 13.7444C4.1855 13.9421 3.4249 13.971 2.68704 13.8289C3.33206 15.8347 5.18074 17.2089 7.28736 17.2484C5.54371 18.6187 3.38986 19.3626 1.17216 19.3604C0.780384 19.3597 0.388992 19.3359 0 19.2894C2.25178 20.7345 4.8719 21.5009 7.54752 21.4974" fill="#5D636D"/>
</svg>
