<svg width="24" height="24" viewBox="0 0 24 24" fill="none" xmlns="http://www.w3.org/2000/svg">
<path d="M18.4355 4.27344L18.2793 7.37891H17.0488C17.0358 6.98828 17.0098 6.66927 16.9707 6.42188C16.9447 6.17448 16.873 5.98568 16.7559 5.85547C16.6517 5.71224 16.4889 5.61458 16.2676 5.5625C16.0592 5.51042 15.7728 5.48438 15.4082 5.48438H13.0059V16.2656C13.0059 16.6823 13.0254 17.0143 13.0645 17.2617C13.1035 17.4961 13.1882 17.6784 13.3184 17.8086C13.4486 17.9258 13.6374 18.0104 13.8848 18.0625C14.1322 18.1016 14.4577 18.1211 14.8613 18.1211V19.0391C14.4837 19.026 14.0345 19.0195 13.5137 19.0195C13.0059 19.0195 12.4785 19.0195 11.9316 19.0195C11.3848 19.0195 10.8509 19.0195 10.3301 19.0195C9.80924 19.0326 9.36654 19.0456 9.00195 19.0586V18.1211C9.4056 18.1211 9.72461 18.1016 9.95898 18.0625C10.2064 18.0104 10.3952 17.9258 10.5254 17.8086C10.6556 17.6784 10.7402 17.4961 10.7793 17.2617C10.8314 17.0143 10.8574 16.6823 10.8574 16.2656V5.48438H8.80664C8.41602 5.48438 8.09701 5.51042 7.84961 5.5625C7.61523 5.60156 7.41992 5.6862 7.26367 5.81641C7.12044 5.94661 6.99674 6.14193 6.89258 6.40234C6.80143 6.64974 6.71029 6.97526 6.61914 7.37891H5.34961L5.62305 4.27344C6.49544 4.3125 7.49154 4.33854 8.61133 4.35156C9.73112 4.36458 10.8704 4.37109 12.0293 4.37109C13.2012 4.37109 14.3405 4.36458 15.4473 4.35156C16.5671 4.32552 17.5632 4.29948 18.4355 4.27344Z" fill="#5D636D"/>
</svg>
