<svg width="24" height="24" viewBox="0 0 24 24" fill="none" xmlns="http://www.w3.org/2000/svg">
<path fill-rule="evenodd" clip-rule="evenodd" d="M14.4697 8.03033C14.7626 8.32322 15.2374 8.32322 15.5303 8.03033C15.8232 7.73744 15.8232 7.26256 15.5303 6.96967L12.5317 3.97108C12.5274 3.96676 12.5231 3.9625 12.5187 3.95829C12.3845 3.82975 12.2026 3.75059 12.0022 3.75C12.0015 3.75 12.0008 3.75 12 3.75C11.9993 3.75 11.9985 3.75 11.9977 3.75C11.8975 3.7503 11.8019 3.77027 11.7145 3.80625C11.6255 3.84285 11.542 3.89733 11.4697 3.96967L8.46967 6.96967C8.17678 7.26256 8.17678 7.73744 8.46967 8.03033C8.76256 8.32322 9.23744 8.32322 9.53033 8.03033L11.25 6.31066V14.25C11.25 14.6642 11.5858 15 12 15C12.4142 15 12.75 14.6642 12.75 14.25V6.31066L14.4697 8.03033ZM5.25 12V18C5.25 19.2426 6.25736 20.25 7.5 20.25H16.5C17.7426 20.25 18.75 19.2426 18.75 18V12C18.75 11.5858 18.4142 11.25 18 11.25C17.5858 11.25 17.25 11.5858 17.25 12V18C17.25 18.4142 16.9142 18.75 16.5 18.75H7.5C7.08579 18.75 6.75 18.4142 6.75 18V12C6.75 11.5858 6.41421 11.25 6 11.25C5.58579 11.25 5.25 11.5858 5.25 12Z" fill="#5D636D"/>
<mask id="mask0_330_78" style="mask-type:alpha" maskUnits="userSpaceOnUse" x="5" y="3" width="14" height="18">
<path fill-rule="evenodd" clip-rule="evenodd" d="M14.4697 8.03033C14.7626 8.32322 15.2374 8.32322 15.5303 8.03033C15.8232 7.73744 15.8232 7.26256 15.5303 6.96967L12.5317 3.97108C12.5274 3.96676 12.5231 3.9625 12.5187 3.95829C12.3845 3.82975 12.2026 3.75059 12.0022 3.75C12.0015 3.75 12.0008 3.75 12 3.75C11.9993 3.75 11.9985 3.75 11.9977 3.75C11.8975 3.7503 11.8019 3.77027 11.7145 3.80625C11.6255 3.84285 11.542 3.89733 11.4697 3.96967L8.46967 6.96967C8.17678 7.26256 8.17678 7.73744 8.46967 8.03033C8.76256 8.32322 9.23744 8.32322 9.53033 8.03033L11.25 6.31066V14.25C11.25 14.6642 11.5858 15 12 15C12.4142 15 12.75 14.6642 12.75 14.25V6.31066L14.4697 8.03033ZM5.25 12V18C5.25 19.2426 6.25736 20.25 7.5 20.25H16.5C17.7426 20.25 18.75 19.2426 18.75 18V12C18.75 11.5858 18.4142 11.25 18 11.25C17.5858 11.25 17.25 11.5858 17.25 12V18C17.25 18.4142 16.9142 18.75 16.5 18.75H7.5C7.08579 18.75 6.75 18.4142 6.75 18V12C6.75 11.5858 6.41421 11.25 6 11.25C5.58579 11.25 5.25 11.5858 5.25 12Z" fill="white"/>
</mask>
<g mask="url(#mask0_330_78)">
<rect x="3" y="3" width="18" height="18" fill="#5D636D"/>
</g>
</svg>
