<svg width="24" height="24" viewBox="0 0 24 24" fill="none" xmlns="http://www.w3.org/2000/svg">
<path fill-rule="evenodd" clip-rule="evenodd" d="M11 9.5C12.3807 9.5 13.5 8.38071 13.5 7C13.5 5.61929 12.3807 4.5 11 4.5C9.61929 4.5 8.5 5.61929 8.5 7C8.5 8.38071 9.61929 9.5 11 9.5ZM11 11C13.2091 11 15 9.20914 15 7C15 4.79086 13.2091 3 11 3C8.79086 3 7 4.79086 7 7C7 9.20914 8.79086 11 11 11Z" fill="#5D636D"/>
<path fill-rule="evenodd" clip-rule="evenodd" d="M8 14.5H14C15.3807 14.5 16.5 15.6193 16.5 17V18H18V17C18 14.7909 16.2091 13 14 13H8C5.79086 13 4 14.7909 4 17V18H5.5V17C5.5 15.6193 6.61929 14.5 8 14.5Z" fill="#C4C4C4"/>
<path fill-rule="evenodd" clip-rule="evenodd" d="M18 18V17C18 16.6547 17.9562 16.3196 17.874 16C17.4299 14.2748 15.8638 13 14 13H8C6.13616 13 4.57006 14.2748 4.12602 16C4.04375 16.3196 4 16.6547 4 17V18H5.5V17C5.5 15.6193 6.61929 14.5 8 14.5H14C15.3807 14.5 16.5 15.6193 16.5 17V18H18Z" fill="#5D636D"/>
<path fill-rule="evenodd" clip-rule="evenodd" d="M22.1111 14.4147L20.9399 13.3394L14.9195 18.8621L12.5493 16.6858L11.3711 17.7601L14.9194 21.0181L22.1111 14.4147Z" fill="#5D636D"/>
</svg>
