<svg width="24" height="24" viewBox="0 0 24 24" fill="none" xmlns="http://www.w3.org/2000/svg">
<path d="M8.60078 13.4501C10.6995 13.4501 12.4008 11.7488 12.4008 9.6501C12.4008 7.55142 10.6995 5.8501 8.60078 5.8501C6.5021 5.8501 4.80078 7.55142 4.80078 9.6501C4.80078 11.7488 6.5021 13.4501 8.60078 13.4501Z" fill="#5D636D"/>
<path fill-rule="evenodd" clip-rule="evenodd" d="M12.7345 20.1C12.2654 19.2294 11.9992 18.2333 11.9992 17.175C11.9992 16.4151 12.1365 15.6872 12.3876 15.0149C11.0453 14.6054 9.61881 14.4 8.6 14.4C6.0635 14.4 1 15.673 1 18.2V20.1H12.7345Z" fill="#5D636D"/>
<path fill-rule="evenodd" clip-rule="evenodd" d="M20 4.425H2.9C2.63766 4.425 2.425 4.63766 2.425 4.9V13H1V4.9C1 3.85066 1.85066 3 2.9 3H20C21.0493 3 21.9 3.85066 21.9 4.9V12.2503C21.4662 11.9216 20.9876 11.6489 20.475 11.4429V4.9C20.475 4.63766 20.2623 4.425 20 4.425ZM20.475 13.136V13.0185C21.0266 13.3244 21.5109 13.737 21.9 14.2284V14.4006C21.516 13.8892 21.0311 13.4578 20.475 13.136ZM12.6818 20H2.29011C2.48154 20.0648 2.68666 20.1 2.9 20.1H12.7345C12.7167 20.0668 12.6991 20.0335 12.6818 20Z" fill="#5D636D"/>
<path fill-rule="evenodd" clip-rule="evenodd" d="M18.1719 12.425C15.5485 12.425 13.4219 14.5517 13.4219 17.175C13.4219 19.7984 15.5485 21.925 18.1719 21.925C20.7952 21.925 22.9219 19.7984 22.9219 17.175C22.9219 14.5517 20.7952 12.425 18.1719 12.425ZM16.7469 19.6432L21.0219 17.175L16.7469 14.7068L16.7469 19.6432Z" fill="#5D636D"/>
</svg>
