<svg width="24" height="24" viewBox="0 0 24 24" fill="none" xmlns="http://www.w3.org/2000/svg">
<path fill-rule="evenodd" clip-rule="evenodd" d="M21.3547 18.8046L16.8865 14.7426C16.5087 14.3989 16.4113 13.8449 16.6493 13.3929C17.3644 12.0349 17.69 10.4388 17.4762 8.75522C17.0497 5.40872 14.413 2.65411 11.0865 2.10824C5.77067 1.23575 1.2403 5.76602 2.10688 11.084C2.64793 14.4088 5.39194 17.0479 8.73021 17.4819C10.4111 17.7012 12.0035 17.38 13.3607 16.6708C13.8079 16.4362 14.3544 16.5318 14.6971 16.9018L18.8992 21.4411C19.6332 22.2341 20.9453 22.1773 21.6369 21.3084C22.2339 20.5586 22.0634 19.4489 21.3547 18.8046ZM12.8907 10.0219C12.8907 10.2709 12.6887 10.4731 12.4398 10.4731H10.7977C10.6228 10.4731 10.4812 10.6138 10.4812 10.7888V12.4319C10.4812 12.6809 10.2801 12.883 10.0303 12.883H9.50912C9.26023 12.883 9.05824 12.6809 9.05824 12.4319V10.7888C9.05824 10.6138 8.91757 10.4731 8.74263 10.4731H7.10055C6.85167 10.4731 6.64968 10.2709 6.64968 10.0219V9.49951C6.64968 9.25048 6.85167 9.04838 7.10055 9.04838H8.74263C8.91757 9.04838 9.05824 8.90762 9.05824 8.73349V7.08956C9.05824 6.84054 9.26023 6.63843 9.50912 6.63843H10.0303C10.2801 6.63843 10.4812 6.84054 10.4812 7.08956V8.73349C10.4812 8.90762 10.6228 9.04838 10.7977 9.04838H12.4398C12.6887 9.04838 12.8907 9.25048 12.8907 9.49951V10.0219Z" fill="#5D636D"/>
</svg>
