<svg width="24" height="24" viewBox="0 0 24 24" fill="none" xmlns="http://www.w3.org/2000/svg">
<path fill-rule="evenodd" clip-rule="evenodd" d="M21.3547 18.8046L16.8865 14.7426C16.5087 14.3989 16.4113 13.8449 16.6493 13.3929C17.3644 12.0349 17.69 10.4388 17.4753 8.75522C17.0497 5.40872 14.413 2.65411 11.0865 2.10824C5.77067 1.23575 1.2403 5.76602 2.10688 11.084C2.64883 14.4088 5.39194 17.0479 8.73021 17.4819C10.4111 17.7012 12.0035 17.38 13.3607 16.6708C13.8079 16.4362 14.3544 16.5318 14.6971 16.9018L18.8992 21.4411C19.6332 22.2341 20.9453 22.1773 21.6369 21.3084C22.2339 20.5586 22.0634 19.4489 21.3547 18.8046ZM12.9441 10.0924C12.9441 10.3143 12.7637 10.4939 12.5419 10.4939H7.03853C6.8167 10.4939 6.63725 10.3143 6.63725 10.0924V9.48605C6.63725 9.2641 6.8167 9.08455 7.03853 9.08455H12.5419C12.7637 9.08455 12.9441 9.2641 12.9441 9.48605V10.0924Z" fill="#5D636D"/>
</svg>
